<?xml version="1.0" encoding="UTF-8"?>
<svg preserveAspectRatio="none" version="1.1" viewBox="0 0 1680 560" xmlns="http://www.w3.org/2000/svg">
    <g fill="none" mask="url(#a)">
        <path d="m1764 560h-1764v-128.93q174.38 34.38 140 208.76-19.37-103.37 84-122.74 45.65-94.34 140-48.69 42.31-97.69 140-55.37 26.49-57.51 84-31.02 99.44-40.56 140 58.89 36.5-47.5 84-11 58.13-25.87 84 32.26 2.61-81.39 84-78.78 30.47-53.53 84-23.06 64.09-75.91 140-11.82 69.95-14.04 84 55.91 112.55 28.55 84 141.09-21.46-105.47 84-126.93 16.02-67.98 84-51.97 82.3-57.7 140 24.6 72.89-11.1 84 61.79z" fill="rgba(31, 44, 63, 1)"/>
    </g>
    <defs>
        <mask id="a">
            <rect width="1680" height="560" fill="#fff"/>
        </mask>
    </defs>
</svg>
