<?xml version="1.0" encoding="UTF-8"?>
<svg preserveAspectRatio="none" version="1.1" viewBox="0 0 1680 560" xmlns="http://www.w3.org/2000/svg">
    <g fill="none" mask="url(#a)">
        <path d="m1764 560h-1764v-15.84q37.35-46.65 84-9.3 65.75-18.25 84 47.5 53.31-86.69 140-33.37 18.73-65.27 84-46.55 34.97-49.03 84-14.06 34.07-49.93 84-15.85 35.86-48.14 84-12.28 56.12-27.88 84 28.24 83.63-0.36 84 83.27 8.93-75.07 84-66.14 23.38-60.62 84-37.25 55.57-28.43 84 27.14 22.76-61.25 84-38.49 54.86-29.14 84 25.72 49.99-34.01 84 15.97 109.23-30.77 140 78.46 19.42-64.58 84-45.16 58.28-81.72 140-23.43 60.25-23.75 84 36.49z"
              fill="rgba(31, 44, 63, 1)"/>
    </g>
    <defs>
        <mask id="a">
            <rect width="1680" height="560" fill="#fff"/>
        </mask>
    </defs>
</svg>
