<svg viewBox="0 0 1498 400" xmlns="http://www.w3.org/2000/svg"><g><g><g><g><g><line x1="70" y1="377" x2="65" y2="377" style="visibility: inherit;" fill="rgb(0, 0, 0)" stroke="rgb(204, 204, 204)" stroke-width="1px"></line><line x1="70" y1="339.3" x2="65" y2="339.3" style="visibility: inherit;" fill="rgb(0, 0, 0)" stroke="rgb(204, 204, 204)" stroke-width="1px"></line><line x1="70" y1="301.59999999999997" x2="65" y2="301.59999999999997" style="visibility: inherit;" fill="rgb(0, 0, 0)" stroke="rgb(204, 204, 204)" stroke-width="1px"></line><line x1="70" y1="263.9" x2="65" y2="263.9" style="visibility: inherit;" fill="rgb(0, 0, 0)" stroke="rgb(204, 204, 204)" stroke-width="1px"></line><line x1="70" y1="226.19999999999996" x2="65" y2="226.19999999999996" style="visibility: inherit;" fill="rgb(0, 0, 0)" stroke="rgb(204, 204, 204)" stroke-width="1px"></line><line x1="70" y1="188.49999999999997" x2="65" y2="188.49999999999997" style="visibility: inherit;" fill="rgb(0, 0, 0)" stroke="rgb(204, 204, 204)" stroke-width="1px"></line><line x1="70" y1="150.79999999999995" x2="65" y2="150.79999999999995" style="visibility: inherit;" fill="rgb(0, 0, 0)" stroke="rgb(204, 204, 204)" stroke-width="1px"></line><line x1="70" y1="113.09999999999997" x2="65" y2="113.09999999999997" style="visibility: inherit;" fill="rgb(0, 0, 0)" stroke="rgb(204, 204, 204)" stroke-width="1px"></line><line x1="70" y1="75.39999999999992" x2="65" y2="75.39999999999992" style="visibility: inherit;" fill="rgb(0, 0, 0)" stroke="rgb(204, 204, 204)" stroke-width="1px"></line><line x1="70" y1="37.69999999999993" x2="65" y2="37.69999999999993" style="visibility: inherit;" fill="rgb(0, 0, 0)" stroke="rgb(204, 204, 204)" stroke-width="1px"></line><line x1="70" y1="0" x2="65" y2="0" style="visibility: inherit;" fill="rgb(0, 0, 0)" stroke="rgb(204, 204, 204)" stroke-width="1px"></line></g><g transform="translate(60, 0)"><text x="0" y="377" dx="0em" dy="0.3em" style="text-anchor: end; visibility: hidden; font-family: &quot;Helvetica Neue&quot;, sans-serif; font-size: 12px; font-weight: 200;" fill="rgb(33, 33, 33)" stroke="none" stroke-width="1px">5e-4</text><text x="0" y="339.3" dx="0em" dy="0.3em" style="text-anchor: end; visibility: inherit; font-family: &quot;Helvetica Neue&quot;, sans-serif; font-size: 12px; font-weight: 200;" fill="rgb(33, 33, 33)" stroke="none" stroke-width="1px">1e-3</text><text x="0" y="301.59999999999997" dx="0em" dy="0.3em" style="text-anchor: end; visibility: inherit; font-family: &quot;Helvetica Neue&quot;, sans-serif; font-size: 12px; font-weight: 200;" fill="rgb(33, 33, 33)" stroke="none" stroke-width="1px">1.5e-3</text><text x="0" y="263.9" dx="0em" dy="0.3em" style="text-anchor: end; visibility: inherit; font-family: &quot;Helvetica Neue&quot;, sans-serif; font-size: 12px; font-weight: 200;" fill="rgb(33, 33, 33)" stroke="none" stroke-width="1px">2e-3</text><text x="0" y="226.19999999999996" dx="0em" dy="0.3em" style="text-anchor: end; visibility: inherit; font-family: &quot;Helvetica Neue&quot;, sans-serif; font-size: 12px; font-weight: 200;" fill="rgb(33, 33, 33)" stroke="none" stroke-width="1px">2.5e-3</text><text x="0" y="188.49999999999997" dx="0em" dy="0.3em" style="text-anchor: end; visibility: inherit; font-family: &quot;Helvetica Neue&quot;, sans-serif; font-size: 12px; font-weight: 200;" fill="rgb(33, 33, 33)" stroke="none" stroke-width="1px">3e-3</text><text x="0" y="150.79999999999995" dx="0em" dy="0.3em" style="text-anchor: end; visibility: inherit; font-family: &quot;Helvetica Neue&quot;, sans-serif; font-size: 12px; font-weight: 200;" fill="rgb(33, 33, 33)" stroke="none" stroke-width="1px">3.5e-3</text><text x="0" y="113.09999999999997" dx="0em" dy="0.3em" style="text-anchor: end; visibility: inherit; font-family: &quot;Helvetica Neue&quot;, sans-serif; font-size: 12px; font-weight: 200;" fill="rgb(33, 33, 33)" stroke="none" stroke-width="1px">4e-3</text><text x="0" y="75.39999999999992" dx="0em" dy="0.3em" style="text-anchor: end; visibility: inherit; font-family: &quot;Helvetica Neue&quot;, sans-serif; font-size: 12px; font-weight: 200;" fill="rgb(33, 33, 33)" stroke="none" stroke-width="1px">4.5e-3</text><text x="0" y="37.69999999999993" dx="0em" dy="0.3em" style="text-anchor: end; visibility: inherit; font-family: &quot;Helvetica Neue&quot;, sans-serif; font-size: 12px; font-weight: 200;" fill="rgb(33, 33, 33)" stroke="none" stroke-width="1px">5e-3</text><text x="0" y="0" dx="0em" dy="0.3em" style="text-anchor: end; visibility: hidden; font-family: &quot;Helvetica Neue&quot;, sans-serif; font-size: 12px; font-weight: 200;" fill="rgb(33, 33, 33)" stroke="none" stroke-width="1px">5.5e-3</text></g><line x1="70" y1="0" x2="70" y2="377" fill="rgb(0, 0, 0)" stroke="rgb(204, 204, 204)" stroke-width="1px"></line></g></g><g transform="translate(70, 0)" clip-path="url(#clip_0)"><clipPath id="clip_0"><rect width="1428" height="377"></rect></clipPath><g><g><g><line x1="0" y1="0" x2="0" y2="377" fill="rgb(0, 0, 0)" stroke="rgb(66, 66, 66)" stroke-width="1px" opacity="0.25"></line><line x1="119" y1="0" x2="119" y2="377" fill="rgb(0, 0, 0)" stroke="rgb(66, 66, 66)" stroke-width="1px" opacity="0.25"></line><line x1="238" y1="0" x2="238" y2="377" fill="rgb(0, 0, 0)" stroke="rgb(66, 66, 66)" stroke-width="1px" opacity="0.25"></line><line x1="357" y1="0" x2="357" y2="377" fill="rgb(0, 0, 0)" stroke="rgb(66, 66, 66)" stroke-width="1px" opacity="0.25"></line><line x1="476" y1="0" x2="476" y2="377" fill="rgb(0, 0, 0)" stroke="rgb(66, 66, 66)" stroke-width="1px" opacity="0.25"></line><line x1="595" y1="0" x2="595" y2="377" fill="rgb(0, 0, 0)" stroke="rgb(66, 66, 66)" stroke-width="1px" opacity="0.25"></line><line x1="714" y1="0" x2="714" y2="377" fill="rgb(0, 0, 0)" stroke="rgb(66, 66, 66)" stroke-width="1px" opacity="0.25"></line><line x1="833" y1="0" x2="833" y2="377" fill="rgb(0, 0, 0)" stroke="rgb(66, 66, 66)" stroke-width="1px" opacity="0.25"></line><line x1="952" y1="0" x2="952" y2="377" fill="rgb(0, 0, 0)" stroke="rgb(66, 66, 66)" stroke-width="1px" opacity="0.25"></line><line x1="1071" y1="0" x2="1071" y2="377" fill="rgb(0, 0, 0)" stroke="rgb(66, 66, 66)" stroke-width="1px" opacity="0.25"></line><line x1="1190" y1="0" x2="1190" y2="377" fill="rgb(0, 0, 0)" stroke="rgb(66, 66, 66)" stroke-width="1px" opacity="0.25"></line><line x1="1309" y1="0" x2="1309" y2="377" fill="rgb(0, 0, 0)" stroke="rgb(66, 66, 66)" stroke-width="1px" opacity="0.25"></line><line x1="1428" y1="0" x2="1428" y2="377" fill="rgb(0, 0, 0)" stroke="rgb(66, 66, 66)" stroke-width="1px" opacity="0.25"></line></g><g><line x1="0" y1="377" x2="1428" y2="377" fill="rgb(0, 0, 0)" stroke="rgb(66, 66, 66)" stroke-width="1px" opacity="0.25"></line><line x1="0" y1="339.3" x2="1428" y2="339.3" fill="rgb(0, 0, 0)" stroke="rgb(66, 66, 66)" stroke-width="1px" opacity="0.25"></line><line x1="0" y1="301.59999999999997" x2="1428" y2="301.59999999999997" fill="rgb(0, 0, 0)" stroke="rgb(66, 66, 66)" stroke-width="1px" opacity="0.25"></line><line x1="0" y1="263.9" x2="1428" y2="263.9" fill="rgb(0, 0, 0)" stroke="rgb(66, 66, 66)" stroke-width="1px" opacity="0.25"></line><line x1="0" y1="226.19999999999996" x2="1428" y2="226.19999999999996" fill="rgb(0, 0, 0)" stroke="rgb(66, 66, 66)" stroke-width="1px" opacity="0.25"></line><line x1="0" y1="188.49999999999997" x2="1428" y2="188.49999999999997" fill="rgb(0, 0, 0)" stroke="rgb(66, 66, 66)" stroke-width="1px" opacity="0.25"></line><line x1="0" y1="150.79999999999995" x2="1428" y2="150.79999999999995" fill="rgb(0, 0, 0)" stroke="rgb(66, 66, 66)" stroke-width="1px" opacity="0.25"></line><line x1="0" y1="113.09999999999997" x2="1428" y2="113.09999999999997" fill="rgb(0, 0, 0)" stroke="rgb(66, 66, 66)" stroke-width="1px" opacity="0.25"></line><line x1="0" y1="75.39999999999992" x2="1428" y2="75.39999999999992" fill="rgb(0, 0, 0)" stroke="rgb(66, 66, 66)" stroke-width="1px" opacity="0.25"></line><line x1="0" y1="37.69999999999993" x2="1428" y2="37.69999999999993" fill="rgb(0, 0, 0)" stroke="rgb(66, 66, 66)" stroke-width="1px" opacity="0.25"></line><line x1="0" y1="0" x2="1428" y2="0" fill="rgb(0, 0, 0)" stroke="rgb(66, 66, 66)" stroke-width="1px" opacity="0.25"></line></g></g></g><g><g><line x1="0" y1="414.7" x2="1428" y2="414.7" fill="rgb(0, 0, 0)" stroke="rgb(153, 153, 153)" stroke-width="1.5px"></line></g></g><g><g><line x1="119" y1="0" x2="119" y2="377" fill="rgb(0, 0, 0)" stroke="rgb(153, 153, 153)" stroke-width="1.5px"></line></g></g><g><g><g><g><g><path stroke="rgb(255, 112, 67)" stroke-width="2px" d="M132.09,394.08510778476483L133.81550000000001,190.29010964978366L135.0412,90.07028487470018L135.5886,182.0221587862345L135.9218,-337.41580608608126L136.1955,-171.70366210857412L136.3978,16.08211838473261L137.2784,61.13090965548304L137.5164,161.7109169189673L139.3966,201.6694466429766L139.94400000000002,171.718528271739L140.3486,193.5398134593245L142.8,166.59897643160784L143.2879,163.25661514343713L144.0019,141.28147901232202L144.8825,-46.80917879071427L145.50130000000001,48.48904240567083L146.00109999999998,111.56948724526598L146.5842,100.33294015182594L147.0126,109.14106008709695L147.2863,142.94299963464613L149.0951,187.24997401141158L149.41639999999998,217.33054580318944L149.7972,220.35545851313026L152.0225,109.88581090057352L153.04590000000002,93.39737979848758L153.7956,111.50762490241243L154.224,176.3148724094125L157.41320000000002,195.27898841292205L158.3057,-15.067963974405814L163.7202,-19.88238825564366L165.41,107.11269147500406L165.886,134.69406310877255L167.5401,128.51579335863687L171.02679999999998,37.63006540274603L171.7527,109.87925850123855L173.84709999999998,-55.04907923444978L174.573,59.31862074013799L176.0486,-139.51840402732375L176.0605,12.60996712652178L177.9169,59.20492197480371L178.3334,160.95882959968299L179.3568,164.46640396093366L180.0351,130.04496532186718L181.96290000000002,-181.78204396342016L182.4746,-26.463354921040946L183.74790000000002,39.609324873859066L184.72369999999998,33.66812263383872L184.73559999999998,133.50133741320545L185.5091,146.44940425593796L186.7705,141.25672591365344L188.24609999999998,204.2344638575936L189.6027,217.4768030203913L190.2929,248.3754825189924L192.28019999999998,224.9773297712247L192.9585,209.91056064277788L193.9819,210.39665861239973L193.9938,177.65568926400238L197.9565,57.68179407873936L199.4202,135.07207903688882L199.7653,195.19530763388227L200.6935,241.44700564271588L201.3956,146.10896593705579L201.76450000000003,53.35052475139912L201.8954,134.4441322049823L202.1929,184.6439948389726L203.0973,184.76396384699922L203.1092,-128.5126968701855L205.28689999999997,-51.53540908903511L207.02429999999998,95.22078759187082L209.5709,114.31952716418272L210.2492,157.81965063397988L211.84380000000002,145.41417005097807L212.3555,15.124614794468584L212.45069999999998,21.672687168369066L213.4741,95.34057668951112L214.25949999999997,178.96185410637827L214.31900000000002,198.7367254848431L214.56889999999999,221.04227715716664L215.9612,198.8165029125566L216.5086,177.93280714405503L216.5919,25.86530057759836L218.63870000000003,102.10820343105047L219.6383,117.90035695170195L220.5308,-0.6812592230152177L220.8997,79.34910544443665L222.1016,117.78551408343628L223.1012,13.509212438721136L224.7077,97.55999005210913L226.0881,69.48972687675064L229.68189999999998,140.9148200942785L230.6934,78.98545062087237L232.35940000000002,48.189102389468246L234.40619999999998,128.23270665767998L234.5252,114.51170113958835L235.10829999999999,90.92188808666418L236.8219,102.11241016028373L237.98809999999997,-42.93366762973045L238.4284,91.97471585130882L238.714,141.08782148096677L238.9758,207.3340098688526L240.4514,165.87582771238823L242.05790000000002,-158.97726203467175L246.0087,-6.4606080221577145L246.43710000000002,29.62348444387652L247.1749,51.70550858333911L251.9468,162.93402457925797L252.8512,209.16271871994806L253.5771,263.3540344068907L255.74290000000002,281.28285925109697L255.85,259.452833567229L257.9801,260.9731830274564L258.468,193.8871782091559L258.944,197.38790746166117L259.0511,106.81614846100683L259.9317,143.54648144340678L260.134,203.99572448191745L261.0503,261.8526495445234L263.3589,189.63017468324077L264.8226,177.84556801897745L264.9416,235.05187114898837L267.2264,251.5755875710367L268.4402,284.19322698242775L268.8567,274.7252816988665L269.2494,274.5443746049636L271.4628,289.3708916748722L271.8912,238.80379899294135L272.47429999999997,270.7622890457568L272.68850000000003,214.9898794958029L272.8075,248.14651887485587L274.2712,183.0720150868249L277.0201,232.22190552086542L279.5548,175.25210280824248L280.38779999999997,195.12493666504943L283.1724,260.5413750435121L284.6956,297.7790627117579L289.22950000000003,323.4027326127514L290.3124,255.6388149470463L291.0978,267.4351919377074L292.9185,242.23681137050536L296.6075,267.4810779315105L298.46389999999997,224.06750020321434L299.60630000000003,228.45922016120684L300.92719999999997,228.5230556916698L301.0462,71.18235043415444L303.569,186.59236451628217L305.5563,241.65816355238803L307.1271,208.9079718621996L308.805,241.14446612856844L310.1735,154.89461570061476L312.9938,122.2253377355768L315.7784,198.77218852997623L316.40909999999997,236.06584658726038L316.8018,229.79484761538492L317.12309999999997,207.65526568491688L317.63480000000004,253.25652796677906L318.9557,244.49633044422959L319.3841,212.84675971848546L320.1695,226.73031934787494L320.7407,259.1943478740136L322.7161,157.15507902126785L324.3702,167.3235901674406L325.5126,178.83601085086326L326.7859,221.8695618937293L327.60699999999997,252.41406954064246L328.3805,228.45664477368757L328.8089,183.9157245714698L329.2611,244.59179272252223L330.2964,245.04020768879596L331.5102,264.0339490951821L333.7355,75.98307406972191L336.5439,137.8438574932238L338.35269999999997,-80.71949069546343L338.54310000000004,44.94670884879423L340.4114,153.92932114226812L340.4709,176.4033184157204L342.1607,184.02180842154573L345.20709999999997,193.41266161139814L345.6593,240.3956967434943L346.48040000000003,279.4231030410028L350.1456,287.14675448957064L350.2051,291.821098139423L350.4788,302.7474398667591L350.8953,253.54979222774367L352.4423,227.34392742997323L353.5966,279.5508555728103L355.7624,21.831965728873286L356.5716,131.3270909777428L358.2495,209.8527724103567L361.3554,246.19485946067792L362.8191,286.3160434729971L365.18719999999996,235.13122139555912L366.0916,280.14140124385176L368.86429999999996,304.9198724839963L369.6616,299.9406147450284L370.9111,331.6412987522081L371.94640000000004,303.68826097499107L372.30339999999995,296.5897122632013L382.4065,79.6948757583229L383.7869,158.89240348826812L384.69129999999996,217.7098620588539L385.0959,263.7747369138871L386.5596,198.15246653607338L387.3331,211.28570468560363L387.8924,254.41895691274408L387.9519,125.61813272397995L389.84400000000005,149.25184255487488L390.43899999999996,100.6048341107176L390.8198,198.30957717623153L391.89079999999996,221.5933413556268L392.462,261.25333210936486L393.31879999999995,281.57050031445203L393.771,149.25861869050127L394.06850000000003,176.95812023561035L394.9134,227.18727158490324L396.0915,244.8496066162497L397.0792,191.066700530619L397.1506,234.9067844498578L398.0193,184.23402176072733L400.1732,196.3726496194037L400.9705,246.27857887814832L401.43460000000005,202.36718453762168L401.6726,221.72385382561225L401.94629999999995,248.9597483665993L404.42150000000004,141.32543507345017L409.4671,235.91548015841843L409.9907,199.3109459897518L410.0264,211.65034297783012L412.1922,203.4142905070116L413.1204,238.59952440962076L414.5246,239.65547784435677L416.262,67.0917577598567L418.7491,180.54739319400937L419.1418,16.696504854660873L420.3437,133.87348508589068L425.73439999999994,42.74139817984462L427.2814,159.29880205568108L429.4472,197.63227214411756L429.45910000000003,61.634856303309505L430.7324,168.04843183846782L430.899,206.0764010424406L433.39799999999997,157.17002873152435L435.82560000000007,231.9686251432743L437.6701,282.75450596901305L438.1104,246.0705034575911L439.8002,186.20107868147204L440.5023,250.76759999398774L440.7641,286.98272938440374L443.5725,303.60887522673687L444.1199,186.26287587568808L446.69030000000004,224.9009102553764L448.13020000000006,-29.71284709568988L448.86800000000005,78.56135303439999L449.6415,125.14941020585476L453.97310000000004,175.35875249402153L455.1155,241.997530920894L456.85290000000003,248.4780371727592L457.51930000000004,263.7329414857653L457.65020000000004,294.1393520021872L458.67359999999996,226.08416375007846L459.1734,222.55554717279446L461.2559,258.43850753521605L461.4939,249.9780433333855L462.8267,268.12167971428875L465.1353,304.51274388315016L465.96829999999994,324.42684461746654L466.1587,291.943949928129L468.21740000000005,237.64685033455143L469.0385,202.91373170238523L470.33559999999994,262.8726803891169L472.56090000000006,223.19426296054164L473.025,129.46947319030065L473.1321,89.31120252471743L473.3344,41.16475256777744L474.4649,83.39075765488707L474.9528,157.7493738034556L475.3098,217.98768991852936L475.3336,-141.73954595372015L477.1662,-79.18434191313338L477.6779,72.06525097069465L480.0341,174.45147285209495L482.1166,246.359184441098L482.64020000000005,221.91054450504683L483.7707,-37.43240354756887L483.79449999999997,72.54491702466981L484.6275,73.38479198694085L485.3891,174.7402694879762L487.7096,218.22108644701785L487.9119,191.127801410155L488.1261,242.23985408159882L489.8278,243.79924089215868L490.2205,256.42472519384427L493.37399999999997,276.40776221093L494.5164,294.42894569001476L495.1709,264.02180684290454L501.73969999999997,266.587049735976L502.2514,218.98394589134617L503.6318,211.8999941814456L504.03639999999996,249.17573008677445L504.5124,213.11704992974447L504.6552,244.3696829633394L508.2847,259.40180776113147L508.4156,287.44824109014195L508.9035,299.84650081149533L509.22479999999996,313.3528873007106L509.4271,83.05767326120178L510.51,194.01669221550904L513.8777,100.76888601917432L514.0205,188.99445993930644L514.4608000000001,245.90732063147752L515.1986,179.2940213894446L515.8888000000001,228.77584081191418L517.0312,288.1187634360334L517.9118000000001,196.66515919694544L519.1374999999999,257.95305313276793L523.0883,203.02223137711016L523.8618,249.29733004790262L524.7781,233.9974435004396L525.2541,224.46657851563705L525.5992,260.94554229692704L527.0033999999999,289.311099141336L527.7769,303.8269480992088L529.4905,321.76088295835876L530.0974,297.51348409881365L531.692,295.6005448416184L531.7158000000001,314.7233276826328L533.3937,220.10249446881926L534.1077,162.48005890460678L535.9998,229.35796999580782L537.0708,248.19407685330282L537.6896,284.24994783196314L538.118,257.0653643080202L539.8435,277.51957601002505L540.3909,285.60373543719436L541.2477,291.03138342764964L541.569,300.35799405987257L545.4008,239.15820867011064L546.6979,277.82337852411933L547.0549,293.09309624034745L548.4947999999999,317.7518971501579L549.1493,298.37079044468936L549.7086,168.98630237333614L552.7907,214.1885378211149L552.9096999999999,266.2297267076393L553.2191,195.43158041310426L554.6709000000001,230.2754178802497L554.8613,244.21533930616536L557.6102000000001,289.80035986318114L559.657,100.2108890212412L560.2638999999999,171.55689096312733L561.2040000000001,218.96540531761056L562.7153000000001,245.83945738551975L564.0124000000001,290.7192010625256L564.1909,272.6048877998622L565.6427,267.3898085575957L565.8212,298.9064242326712L566.5947,269.909863790184L568.1417,247.41523493278603L568.4511,227.55355370267378L568.8557,274.4092859154144L571.1524000000001,310.5329170859724L571.7474,325.23510050725156L573.2468,330.88621580377946L573.8537,339.845780032952L574.0798,353.5901817715641L574.4725,145.20775366523714L575.008,239.28775254198598L575.8648,215.00081182485033L577.0072,232.19711599433546L577.0786,239.1243339314111L577.8283,223.2083682642309L577.9354,211.78431128000784L580.7914,235.00960456034878L581.6839,222.94440845028365L582.9929,256.12404680170596L584.8493000000001,261.0314833512484L585.4562,278.5390877892422L588.1218,317.45088610052153L589.5855,325.5686045236086L591.3943,339.07589998106334L593.7029,303.4638565007458L594.5597,279.10948261938154L594.9524,254.96166833041107L595.4879,256.09217972217795L595.9996,269.3534783230501L599.4863,289.014210220726L599.4982,323.77430237523566L602.9373,332.67810267689435L603.2467,338.3061677115119L605.5672,341.4906202801738L606.9952,345.3407771645441L608.447,357.04664480375226L609.2561999999999,347.62708028956934L609.5894,356.12571378449906L611.2911,321.95795668333955L611.6719,272.6467834239911L612.3978,294.10962475460536L612.6834,312.30903360908786L612.7072,277.77358588257766L613.2189,241.18583148705562L613.5878,267.27190460026327L614.1947,307.94095336905156L615.825,293.28230107015986L616.2653,298.4292112886108L617.0745,320.4552219281612L618.205,284.8586418919276L618.6215,266.3434517583257L619.0618,295.61690493112843L619.2165,302.7131792052748L622.8222,328.125427158872L625.1189,307.43180633534473L625.6424999999999,289.892787168917L625.6901,259.00618575572787L626.1066,243.61886597937234L626.9039,260.7191072922402L626.9396,228.59803417184665L629.3434,282.8604506513251L629.629,282.3790402310057L630.938,279.8011378807255L632.0447,252.82725484326053L632.5802,290.5542196598921L632.6635,298.21432422681295L633.0681000000001,293.11978580249036L634.1272,331.8300477414887L634.4723,327.5355465869344L636.888,350.26899462135054L637.007,331.0323415792967L637.8162,308.51946966287403L639.8987,315.1233074183727L641.4576,292.3980306652465L643.8138,264.91744428260796L645.575,271.8464427489559L646.0391000000001,295.95782870075226L646.5151,318.5600837784402L647.9788,-12.18024345949948L649.8947000000001,115.12340628331509L651.3584,136.19870796218876L652.3222999999999,215.33006827661615L652.9411,281.881465836565L653.0600999999999,297.25072622542103L653.3338,284.9289006392331L655.6067,320.8786815914614L657.0823,260.44947253350034L657.3917,301.842256676308L661.6637999999999,203.81407673606373L662.1517,259.0006073210335L662.2707,241.53619052685474L666.9236000000001,270.8226832115184L668.0422,256.2701282244045L670.9339,278.1368223437588L675.8367,266.86100851007825L676.9314999999999,302.44878636149184L681.2750000000001,309.8277376552529L682.0723,302.5431398847763L682.4055,308.46206496493903L684.0715,256.8808186494522L686.6895,217.17835737903192L686.749,243.26389390641017L688.3555,256.20360051185526L688.5221,227.48935701558372L691.4852000000001,237.53864252066242L691.509,290.17030144994334L691.9730999999999,260.9230620365731L694.841,173.51415360161016L696.8402,232.36183959238738L697.0781999999999,277.79659204955703L698.2563,300.305146345948L698.5895,276.524861791703L698.9584,236.84295124752694L699.7438,270.6255042828224L700.5054,281.01700965208425L701.2194,311.9644519234381L702.5522,314.4240981191207L705.4201,257.0014655585473L705.9675,274.9918942664048L706.0151,298.1830276046086L707.1098999999999,324.3808701752954L708.1214,297.1698910489281L709.7993,226.66892325205202L711.8937,277.96844194008463L712.3102,315.4799673222292L713.0837,-34.02984733326508L713.1194,101.83330053229162L714.8924999999999,202.6103532496931L717.2368,267.7465190001632L718.3911,289.5365723070237L721.4256,269.25484739552337L721.4732,270.9398489846909L724.9004000000001,295.4516271510943L725.424,304.58293131525664L728.5418,301.67911511188953L732.5758999999999,204.37568612293126L733.2899,241.27816463303998L733.4446,212.2446097021844L734.7893,247.0558922352222L736.6219,89.16230732600849L737.3002,180.60123032451247L739.0019,208.30075046447263L739.1209,258.4227054675063L741.7865,277.5494601150388L742.3339,242.77260981276834L743.4644,253.16743722342076L746.3323,306.4194891654223L747.9983,291.81990246148524L748.4980999999999,301.6634575968779L748.867,299.81500590373855L751.4493000000001,285.901481365888L751.4731,297.375224322813L751.7111000000001,220.9460595168097L752.0323999999999,176.19827450796498L752.0561999999999,243.01849908998332L752.3656000000001,247.26058381823137L752.3774999999999,171.98357314662593L754.4957,180.13582151589665L755.7332999999999,62.87227159594221L758.0062,181.43980219922048L758.2204,242.2308307335471L758.2323,267.9317257810798L759.5651,37.58496743972108L760.1482,75.88544668754929L760.3148,199.83234154053625L762.6828999999999,160.58362452786025L762.6948,240.6198435073397L762.8018999999999,262.6791997906L763.9086000000001,289.877023148473L766.6694000000001,310.2825371248638L767.1216000000001,338.66153326425643L767.7999,166.7360331421714L767.8951,186.4662188074363L769.5016,240.15432780899837L771.0248,177.46476880740067L772.2385999999999,241.19369909923338L772.4408999999999,238.52494143880048L773.024,288.4130957295322L773.262,310.43828857558657L773.4762,317.7536859213125L774.1664000000001,166.43863911502427L774.452,110.735669782L776.7963,4.979629812083942L777.5459999999999,131.28891822275057L779.8546,219.29421904423256L780.7352,258.03237481475423L781.1398,275.8295210599038L781.3778,256.35537376502947L782.1869999999999,273.3713248151529L782.2465,311.13109955276474L784.7336,264.3991989523794L785.1382,276.5653827073798L788.0299,255.6968323655501L789.0889999999999,261.4514144512311L790.6717,251.96830778314438L793.5039,204.73618585493426L793.8609,265.95757947613305L801.2984,246.2293825681478L801.6673,261.322217482878L805.6776000000001,270.11051762494634L806.3321000000001,273.16014105531985L810.0568000000001,309.8020652594248L811.0207,195.45087376934762L811.0683,246.37417599299533L811.58,285.5355304949447L811.7108999999999,-38.20594630819778L812.5201,113.75167442406882L813.5078,165.28349354175134L815.8402000000001,95.1545942432129L818.3273,188.85094035038017L818.4701,256.6669995046029L822.8374000000001,214.0014038703662L822.9564,251.97254265036116L825.7291,258.73369410737416L827.2999,215.5011567378286L827.3832,251.01521941925546L828.8706999999999,264.0061398183135L829.0254,220.70910853757428L829.2039000000001,265.00737079405167L830.1320999999999,294.75568726568446L830.9651,148.96919601833238L831.0127,221.26457670390852L834.1185999999999,256.1060458152607L834.8564,290.3744440225729L835.1063,272.03854049163874L836.3200999999999,281.42020849938876L836.4034,292.68979020032697L837.4386999999999,324.3052888872529L839.5688,334.74786984613866L843.6267,326.32595888743595L843.71,330.02557780009386L843.8409,335.17884754515813L844.2574,330.1535504895575L845.5069,-70.29669520746904L845.5545,61.61734324430688L848.4819,186.0772734882549L848.6961,245.2787059724847L850.2669,290.33290332525337L854.8127,312.1373249919377L855.1816,247.25553154043328L855.9551,244.11556708003263L856.3240000000001,279.9140145751696L858.1923,296.2976018050528L858.8349,308.719251687182L860.5961,302.7256596008557L860.9412,319.11199772914455L861.1673000000001,147.06625743425008L861.8813,244.78332532933277L862.274,260.612037796026L863.7496,303.5871939238134L863.8805000000001,277.967223779483L864.9396,109.92895533241233L865.0824,202.3255639062667L866.2248000000001,250.88609434053862L866.4984999999999,287.4648530429114L866.8198,304.07617202068917L867.4029,301.3484455024633L867.8432,310.473309573855L868.3549,275.9276748078024L868.8785,311.260661193398L869.4616,261.47947257260523L869.6401000000001,264.5953453391048L872.1152999999999,289.53577340665476L874.9951,280.97904322265396L876.8753,297.1724937581647L878.1605000000001,258.5294833215254L878.8745,279.81974587103286L881.4687,246.01147785669897L882.8967,268.9775433394988L885.2290999999999,96.65127005926843L886.1930000000001,151.86807659299419L888.5373000000001,125.2382952590659L890.5840999999999,222.7479547930807L890.6436,249.19431645255088L893.0117,289.9429272553298L894.0708,307.13639743192334L895.832,231.0016291237672L896.2723,265.2832824052453L897.5812999999999,118.67478851324796L898.0930000000001,207.06853478563715L898.2834,255.95311282702022L901.2703,0.7485032643540421L902.0794999999999,156.50238300796826L903.1029,214.59421508006145L905.0664,264.595079437893L908.6125999999999,290.04275514312167L910.2072,319.40694929318175L910.2905000000001,176.14486005578362L911.0878,233.3270452542539L913.7772,254.62566867565724L913.8248,237.02606903177866L913.9794999999999,292.33785888530235L917.1211000000001,330.66186155832884L917.6089999999999,346.78117649093764L917.8351,363.75440782836375L921.5717000000001,348.9641140447187L922.3333,278.9841643721537L922.4404000000001,240.40294524018026L922.8807,258.0047182602975L924.7013999999999,246.3942107710715L925.2130999999999,105.52454104921071L925.8795,161.70097596467048L928.7355,207.5050635543198L929.4257,255.4276865843225L929.4852000000001,251.37769904081753L932.6863,201.18388827305867L934.1262,230.8133876112809L934.4475000000001,238.34702301354466L934.5308,202.9953244761005L939.4693,232.1826459886357L939.7311,-21.46256680776338L942.3848,121.7432883996388L942.9441,215.26362617752676L943.194,276.03313709865046L946.2403999999999,305.2738579434978L947.2638,330.99308025444014L947.2757,281.95289540978945L948.2753,290.314285629199L948.8584,319.3063956834114L949.3581999999999,344.3756249311409L951.6549000000001,349.2656066202949L951.7382,355.5382101683739L952.2737,310.6187113354458L952.5236000000001,142.4936621373804L954.2134,230.5584410952575L956.6529,249.58948168275037L959.2947,294.20719826879963L960.0563,318.1039550872169L962.4125,264.7487570897652L962.9956,299.5281107059666L963.8643,331.19237234102474L967.3390999999999,355.2269468349623L967.5295000000001,307.4999927936439L967.7913,249.47993398686907L969.0884,300.6054318392614L969.5644000000001,298.5032670922184L969.7310000000001,271.47258349848414L971.8968,253.74432907264006L971.9563,241.2059617806111L977.6326,218.50441083527411L978.0848,-12.711383336682331L978.9654,127.8673390181963L979.1677000000001,191.76159702388077L980.0721,246.16533126874347L980.6551999999999,267.80640860680387L980.8813,290.65195087244297L981.0479,311.34402728870623L982.0118,295.2722796579904L982.1546,298.6211449998293L983.9396,326.8511586919158L984.3918,331.96220853491L985.3199999999999,322.0315946917288L985.7246,342.2227722239451L986.2006,311.92345500212645L986.3791,341.0747264940656L987.0693,316.31092074582676L988.9138,340.2648853331488L990.8535,338.64291510319305L994.1260000000001,319.3060890339946L996.0776,180.64598910261003L996.8154,264.1083685122546L999.4691,290.7907087813387L1000.6591000000001,300.478820227642L1003.5745999999999,302.05460318166564L1003.6222,330.77035369430365L1005.6690000000001,336.72760425659646L1009.6079,322.7316089686908L1009.8578000000001,330.6348469956015L1010.1791,316.3507022426751L1010.3100000000001,325.5160841485099L1016.0577,303.5934885368637L1016.3909000000001,324.0500083209733L1018.7114,289.3156051693356L1019.5801,280.08469250875686L1020.9724,306.4156766146599L1021.5436000000001,305.17111805395353L1022.7812000000001,319.5393698512976L1025.1017000000002,111.97034118649145L1025.8156999999999,216.05282531381715L1027.1009,235.42095922381324L1032.3011999999999,283.9650319926479L1032.5987,282.50992971241703L1032.6939,226.94033334183828L1032.8129,178.62993065463385L1033.1698999999999,168.34390217659998L1034.0029,235.33245273358008L1034.5741,274.3878437037103L1034.8478,271.25804412572575L1034.8835,315.29796414511054L1035.6689,297.3286685998687L1036.5375999999999,221.32742041262676L1039.9529,278.79067173428945L1040.2385,275.83447929883073L1041.6665,311.40713517998347L1042.2853,300.79204526355676L1042.6304,312.75796020469556L1043.4396,305.4027502811938L1045.2603000000001,330.55723531176085L1046.605,341.7466659500714L1047.3666,-143.17747478279387L1047.557,13.563407014799623L1047.9259,125.5459170115694L1048.3067,206.38943648130922L1048.747,262.4446360898985L1048.8303,79.40651856142125L1049.6157,171.54467747704885L1049.6395,236.1715349928838L1056.0179,287.2075089916618L1056.9461000000001,318.8834391933326L1057.1484,339.3412071055036L1057.8743,270.32445489486224L1058.0528,308.329641332374L1058.3503,258.1371010016775L1060.1709999999998,298.01664427676053L1060.7898,-133.7803232576951L1061.004,71.57917635897525L1061.4324,155.62824188320172L1062.3487,225.2096131150325L1064.3241,24.830054702424945L1069.5839,104.1435857870066L1070.9048,187.21897499787113L1071.714,263.80048493956656L1071.7259,283.360220461876L1072.1424,307.1524450469633L1072.7969,289.22854833266854L1074.3201000000001,296.8834843103541L1074.8437,315.4333221450867L1075.5815,329.8297585382936L1075.9027999999998,325.5759532289134L1076.1051,329.8240574798093L1081.3768,347.42366462162767L1084.9349,361.656953656184L1086.1725,293.30859867275194L1089.9091,326.83324456715843L1091.4323,330.8547442260639L1092.2653,328.97954051543803L1092.4080999999999,330.6652042271169L1092.7413000000001,317.99256919623747L1094.5501,271.2649170732578L1097.4656,197.72202356940983L1097.6679,243.08784729293868L1098.5128,293.99467678913106L1102.0114,260.552548175893L1102.2613,245.3464737356256L1103.0943,295.18025139592146L1103.3561,314.31318434020613L1104.6889,301.2507998212619L1104.8674,331.9048548527476L1105.0578,347.9334157952542L1105.2244,342.7684181454107L1105.5933,339.9627743107721L1107.176,333.0871833427337L1109.2942,275.53041532746477L1111.3767,305.60847581628127L1112.9356,189.031333324332L1113.0308,259.04761021697163L1116.0534,305.2538966885277L1116.1605,327.2976142896231L1117.2553,290.79088838774055L1119.9447,287.6745692688411L1120.1589000000001,199.89981349576624L1120.2541,250.04538260515994L1121.7059000000002,301.25737639457486L1125.7995,313.9631446442932L1126.8348,323.68965488355934L1126.8705,350.3365425736477L1127.1204,327.86340760742246L1131.1069,347.43377778164074L1131.1426000000001,350.59330789819523L1134.3437000000001,162.24449964985342L1135.6526999999999,210.35854532189722L1135.9026,249.07414375233682L1136.8903,298.59199812583944L1136.9379,317.3977197006215L1137.6043,288.3317440897148L1137.878,325.68054373815187L1137.9851,260.3555482532354L1139.306,302.64274405044443L1142.7808,321.6378969004132L1143.3044,331.40066404952125L1143.9946,305.7366096041412L1145.8153,323.45704611956694L1145.9224,342.7860348269022L1148.3738,351.5337322570191L1148.6236999999999,361.02825623268967L1148.9926,371.2905798366448L1150.3135,367.7043958118278L1150.5634,369.5530518854093L1153.4908,372.0751381785083L1154.1572,366.94694763033294L1155.3472000000002,372.0570118408796L1156.1564,360.0177224313183L1156.5967,353.12744038976507L1157.7391,253.00896526710557L1158.3698,110.18676303110334L1158.4531,175.94168312449344L1160.1191,255.40369309350305L1160.2619,302.9001694286731L1164.1888999999999,307.5919118360351L1164.2365,335.87347924951735L1164.534,336.3563957723619L1165.2599,302.3391828979636L1165.7121,325.8439402021816L1166.0691000000002,-124.2148773182721L1167.866,74.42777902011335L1168.2349,191.7565384469137L1168.6157,220.37418324376375L1169.3891999999998,288.8376117309756L1169.9485,319.3625719901294L1170.0794,345.599471283823L1170.3531,307.5653648813783L1171.3764999999999,307.0899972387533L1171.6859,287.9265690087307L1172.9354,270.9811813537197L1175.1369,299.91434636709346L1177.386,328.6902662294939L1177.8501,319.8020116058192L1177.8619999999999,337.9062730971918L1181.5629,335.0964552955446L1181.8366,357.0295785298604L1183.2408,358.09138997335185L1184.7402,359.20195733413965L1185.002,364.6292813555501L1185.5613,363.3418967277096L1188.0484,187.57395174534832L1188.4768000000001,139.23540977228706L1189.8572000000001,85.68392216944108L1189.9524000000001,167.86448871878332L1190.952,210.04304515771597L1191.9873,265.0829409629257L1192.5347,302.76762932036974L1192.9155,264.1667973975519L1196.0214,307.74152239957033L1196.8663,46.988205084792185L1198.0682,181.28554394064335L1199.1154,169.23064300279609L1200.0079,247.24274055271323L1200.5672,265.428218517655L1203.2566,301.55146298972005L1205.5176,321.21735106258683L1206.1245,324.63689218587626L1207.9214,339.35279546969804L1209.0042999999998,351.19673477243583L1209.159,364.9544357965325L1209.4089000000001,352.4904260845443L1211.5747,365.7606203370294L1213.2645,359.0755688230992L1214.1093999999998,163.5769659823656L1214.5735,-7.527624092907956L1214.8591,148.840343440675L1216.2038,241.99097963337425L1216.4299,301.79526734209776L1217.5128,132.69238641802497L1217.7508,178.75044336464416L1218.7861,243.83001721894095L1218.8932,296.05426378165396L1220.3331,325.1933049994094L1221.535,350.1647098364425L1221.5588,340.0543689441378L1222.5941,313.71194409827564L1223.0939,332.44760280020637L1223.4985,303.9626843614435L1224.2601,325.0932920078147L1226.9257,313.9704094114726L1227.5326,302.7371132143036L1229.6984,331.4179692848143L1230.9836,348.47176867338965L1233.3398,363.9702210247916L1233.9348,346.2222603224458L1235.8269,342.17681162984616L1236.8503,353.6691098614421L1237.7547,369.8740537340462L1238.6709999999998,356.7812513551873L1239.8967,367.72850251951513L1240.2299,377.66654349805384L1242.3362,-29.027831833548532L1242.3719,131.90508202210833L1242.3838,210.06116002266566L1244.4068,279.3974638159347L1246.1918,250.04810811610653L1246.2989,299.4370696208649L1247.3699,311.2212065512999L1248.4409,316.5966276256778L1249.6785,337.1713540018969L1250.4162999999999,340.2364436705111L1252.3202999999999,354.440930053544L1253.4508,367.096229918943L1253.8673000000001,356.16495816328893L1254.379,318.00043024029594L1255.8665,334.6223284113408L1256.1164,328.5844108283818L1256.3187,202.2255572095692L1259.7102,262.1839517910886L1259.9125000000001,300.3951659257849L1262.1734999999999,336.8573016340667L1263.8394999999998,352.628590143927L1266.3028000000002,359.2225531027961L1267.3143,354.0211142082139L1268.9922000000001,314.03338153640175L1269.9561,321.09344403053666L1270.3011999999999,341.24962370451L1271.039,349.0088202223149L1272.1576,360.92787381557554L1273.1571999999999,361.65173706880466L1273.2881,372.3741183969528L1275.2396999999999,377.0696921147235L1283.6173,386.8104240761971L1284.1409,375.2802317859546L1285.2238,356.8221981064567L1285.8902,365.9524346382634L1285.9497000000001,364.61203943896834L1287.0921,352.4592434734615L1287.5323999999998,320.9733140643991L1288.6034,263.0630108755265L1289.1270000000002,284.20422957257534L1289.8886,320.47252941409414L1290.2813,344.58461333076457L1291.6141,349.48185779078483L1293.6252,357.91856004263417L1294.1012,372.0782206811001L1294.2083,257.5663955621415L1294.8866,309.63135816931685L1295.8624,324.43358112416394L1296.1837,333.39198499264853L1296.9096,307.2657734331789L1297.8259,324.2319293659807L1299.0635,347.971626189072L1299.361,339.87111788971373L1300.3606,343.26015536097077L1301.6577,338.47289632950657L1302.693,353.84889130738037L1303.526,333.01084159759677L1303.6807,334.3769388239711L1304.0734,333.17684136606033L1305.6323,354.62550406846344L1305.8584,298.0526118449446L1308.5002,249.66134704587319L1308.6549,268.70911822721337L1309.1309,290.5409640479384" style="fill: none;" fill="none"></path></g></g></g></g><g opacity="0.2"><g><g><g><path stroke="rgb(255, 112, 67)" stroke-width="2px" d="M132.09,394.08510778476483L133.81550000000001,68.013110768795L135.0412,-6.140746909380027L135.5886,290.1575625061989L135.9218,-1015.5940130233766L136.1955,57.535889384150494L136.3978,284.618789062649L137.2784,126.81247979663308L137.5164,310.0468909719959L139.3966,261.0032063562423L139.94400000000002,127.06380334012206L140.3486,226.15299077033993L142.8,126.27568739727135L143.2879,158.24962124489244L144.0019,108.34460576325648L144.8825,-328.81250939071185L145.50130000000001,191.39604718685146L146.00109999999998,206.17413838654753L146.5842,83.4798312865197L147.0126,122.3524348929524L147.2863,193.64405517727133L149.0951,253.7089776366949L149.41639999999998,262.4508096024394L149.7972,224.8927917450666L152.0225,-55.81787534728653L153.04590000000002,68.66480346098541L153.7956,138.6729462191462L154.224,273.525644175522L157.41320000000002,223.72514494955536L158.3057,-330.5882762998343L159.8408,-63.94249348640449L163.7202,2.2206939876079446L165.41,297.6052959103137L165.886,176.06611858382817L167.5401,119.24838899895542L171.02679999999998,-98.69852418750531L171.7527,218.25304703116413L173.84709999999998,-302.4415843069554L174.573,230.87017006501551L176.0486,-437.77394051402825L176.0605,240.8025235522538L177.9169,129.0973541911691L178.3334,313.5896909635514L179.3568,169.72776550129052L180.0351,78.4128073722124L181.96290000000002,-649.5225578427317L182.4746,206.5146786279976L183.74790000000002,138.71834456250068L184.72369999999998,24.756319274008263L184.73559999999998,283.25115958023815L185.5091,165.87150451987978L186.7705,133.46770840026434L188.24609999999998,298.701070773229L189.6027,237.34031176455315L190.2929,294.7235017668456L192.28019999999998,189.88010064959522L192.9585,187.31040695011615L193.9819,211.12580556683238L193.9938,128.54423524141308L197.9565,-122.27904869914062L199.4202,251.1575064741075L199.7653,285.3801505293697L200.6935,310.8245526559651L201.3956,3.1019063785672074L201.76450000000003,-85.7871370270849L201.8954,256.08454338535665L202.1929,259.94378878995775L203.0973,184.94391735903918L203.1092,-598.4276879459621L203.7994,-59.28531865328557L205.28689999999997,22.394095652550448L207.02429999999998,315.35508261322974L209.5709,142.96763652265068L210.2492,223.06983583867546L211.84380000000002,126.80594917647537L212.3555,-180.30971809029586L212.45069999999998,31.494795729219902L213.4741,205.84241097122427L214.25949999999997,304.39377023167907L214.31900000000002,228.39903255254026L214.56889999999999,254.5006046656519L215.9612,165.47784154564138L216.5086,146.6072634913027L216.5919,-202.2359592720867L218.63870000000003,216.4725577112287L219.6383,141.5885872326791L220.5308,-178.5536834850908L220.8997,199.3946524456143L222.1016,175.44012704193588L223.1012,-142.9052400283516L224.7077,223.63615647219117L226.0881,27.384332113713015L229.68189999999998,248.05245992057021L230.6934,-13.908603589236805L232.35940000000002,1.9945800423622018L234.40619999999998,248.29811305999752L234.5252,93.93019286245101L235.10829999999999,55.537168507277954L236.8219,118.89819327071302L237.98809999999997,-260.5027843147517L238.4284,294.3372910728678L238.714,214.75747992545362L238.9758,306.7032924506813L240.4514,103.68855447769158L242.05790000000002,-646.2568966552617L246.0087,222.31437299661334L246.43710000000002,83.74962314292782L247.1749,84.82854479253285L251.9468,329.7767985731363L252.8512,278.5057599309832L253.5771,344.64100793730466L255.74290000000002,308.1760965174064L255.85,226.70779504142698L257.9801,263.2537072177976L258.468,93.25817098170512L258.944,202.63900134041901L259.0511,-29.04149003997452L259.9317,198.6419809170067L260.134,294.66958903968333L261.0503,348.63803713843225L263.3589,81.29646239131688L264.8226,160.1686580225825L264.9416,320.86132584400474L267.2264,276.3611622041091L268.4402,333.11968609951435L268.8567,260.52336377352475L269.2494,274.2730139641091L271.4628,311.6106672797352L271.8912,162.95315997004505L272.47429999999997,318.70002412497996L272.68850000000003,131.33126517087217L272.8075,297.8814779434353L274.2712,85.46025940477841L277.0201,305.94674117192625L279.5548,89.79739873930805L280.38779999999997,224.93418745025988L283.1724,358.66603261120616L284.6956,353.63559421412646L289.22950000000003,361.8382374642417L290.3124,153.99293844848867L291.0978,285.1297574236989L292.9185,204.4392405197024L296.6075,305.34747777301817L298.46389999999997,158.94713361077007L299.60630000000003,235.04680009819563L300.92719999999997,228.61880898736413L301.0462,-164.82870745211846L303.569,359.7073856394738L305.5563,324.25686210654675L307.1271,159.7826843269169L308.805,289.49920752812176L310.1735,25.519840058684338L312.9938,73.22142078801988L315.7784,313.59246472157537L316.40909999999997,292.0063336731866L316.8018,220.38834915757175L317.12309999999997,174.4458927892148L317.63480000000004,321.6584213895723L318.9557,231.35603416040536L319.3841,165.37240362986918L320.1695,247.55565879195925L320.7407,307.89039066322147L322.7161,4.096175742149342L324.3702,182.57635688669978L325.5126,196.10464187599715L326.7859,286.4198884580284L327.60699999999997,298.2308310110122L328.3805,192.5205076232552L328.8089,117.10434426814311L329.2611,335.6058949491009L330.2964,245.71283013820644L331.5102,292.52456120476126L333.7355,-206.09323846846826L336.5439,230.63503262847658L338.35269999999997,-408.56451297849435L338.54310000000004,233.44600816518064L340.4114,317.403239582479L340.4709,210.11431432589885L342.1607,195.44954343028363L345.20709999999997,207.49894139617678L345.6593,310.8702494416386L346.48040000000003,337.96421248726546L350.1456,298.7322316624224L350.2051,298.83261361420153L350.4788,319.13695245776324L350.8953,179.75332076922055L352.4423,188.0351302333176L353.5966,357.8612477870658L355.7624,-364.7463690370322L356.5716,295.56977885104715L358.2495,327.6412945592776L361.3554,300.70799003615974L362.8191,346.4978194914758L365.18719999999996,158.35398827940222L366.0916,347.6566710162908L368.86429999999996,342.087579344213L369.6616,292.4717281365767L370.9111,379.19232476297765L371.94640000000004,261.75870430916547L372.30339999999995,285.9418891955167L382.4065,-245.6473789989949L383.7869,277.688695083186L384.69129999999996,305.93604991473256L385.0959,332.872049196437L386.5596,99.71906096935265L387.3331,230.98556190989908L387.8924,319.11883525345473L387.9519,-67.58310355916626L389.84400000000005,184.7024073012173L390.43899999999996,27.6343214444816L390.8198,344.8666917745024L391.89079999999996,256.5189876247197L392.462,320.743318239972L393.31879999999995,312.0462526220828L393.771,-49.209203745424816L394.06850000000003,218.507372553274L394.9134,302.5309986088425L396.0915,271.3431091632694L397.0792,110.39234140217297L397.1506,300.666910328716L398.0193,108.22487772703164L400.1732,214.5805914074182L400.9705,321.13747276626526L401.43460000000005,136.5000930268317L401.6726,250.75885775759815L401.94629999999995,289.8135901780799L404.42150000000004,-20.12603486627347L409.4671,377.8005477858707L409.9907,144.40414473675187L410.0264,230.15943845994767L412.1922,191.06021180078383L413.1204,291.3773752635345L414.5246,241.23940799646076L416.262,-191.75382236689336L418.7491,350.7308463452384L419.1418,-229.0798276543618L420.3437,309.6389554327354L425.73439999999994,-93.95673217922456L427.2814,334.13490786943584L429.4472,255.13247727677225L429.45910000000003,-142.3612674579025L430.7324,327.6687951412052L430.899,263.11835484839975L433.39799999999997,83.81047026515L435.82560000000007,344.16651976089923L437.6701,358.9333272076212L438.1104,191.04449969045814L439.8002,96.39694151729339L440.5023,347.61738196276127L440.7641,341.30542347002773L443.5725,328.5480939902365L444.1199,10.243876849114883L446.69030000000004,282.85796182490884L448.13020000000006,-411.63348312228936L448.86800000000005,240.9726532295346L449.6415,195.03149596303697L453.97310000000004,250.67276592627167L455.1155,341.9556985612027L456.85290000000003,258.198796550557L457.51930000000004,286.61529795527457L457.65020000000004,339.74896777682005L458.67359999999996,124.0013813719153L459.1734,217.2626223068684L461.2559,312.2629480788484L461.4939,237.2873470306396L462.8267,295.3371342856437L465.1353,359.0993401364423L465.96829999999994,354.2979957189411L466.1587,243.21960789412256L468.21740000000005,156.20120094418522L469.0385,150.81405375413593L470.33559999999994,352.8111034192145L472.56090000000006,163.67663681767877L473.025,-11.11771146506078L473.1321,29.07379652634262L473.3344,-31.054922367632457L474.4649,146.7297652855515L474.9528,269.2872980263084L475.3098,308.34516409114L475.3336,-681.3303997620942L477.1662,14.648464147746552L477.6779,298.93964029643683L480.0341,328.0308056741953L482.1166,354.2207518246025L482.64020000000005,185.23758460097014L483.7707,-426.4468256264927L483.79449999999997,237.51089788302775L484.6275,74.64460443034767L485.3891,326.7734857395291L487.7096,283.4423118855804L487.9119,150.48787385486062L488.1261,318.90793308876454L489.8278,246.13832110799845L490.2205,275.36295164637266L493.37399999999997,306.3823177365586L494.5164,321.4607209086418L495.1709,218.41109857223924L501.73969999999997,270.4349140755832L502.2514,147.5792901244014L503.6318,201.27406661659475L504.03639999999996,305.0893339447677L504.5124,159.02902969419952L504.6552,291.2486325137317L508.2847,281.94999495781957L508.4156,329.51789108365773L508.9035,318.44389039352535L509.22479999999996,333.6124670345336L509.4271,-262.38514779806144L510.51,360.45522064696996L513.8777,-39.10282327532775L514.0205,321.33282081950455L514.4608000000001,331.2766116697341L515.1986,79.37407252639531L515.8888000000001,302.9985699456185L517.0312,377.13314737221225L517.9118000000001,59.48475283831357L519.1374999999999,349.88489403650163L523.0883,120.62599874362343L523.8618,318.7099780540913L524.7781,211.04761367924507L525.2541,210.17028103843327L525.5992,315.66398796886205L527.0033999999999,331.85943440794944L527.7769,325.60072153601794L529.4905,348.66178524708374L530.0974,261.14238580949603L531.692,292.73113595582544L531.7158000000001,343.4075019441545L533.3937,78.17124464809893L534.1077,76.04640555828809L535.9998,329.67483663260936L537.0708,276.44823713954537L537.6896,338.33375429995357L538.118,216.2884890221059L539.8435,308.20089356303214L540.3909,297.72997457794844L541.2477,299.17285541333257L541.569,314.34791000820695L545.4008,147.35853058546778L546.6979,335.8211333051324L547.0549,315.99767281468957L548.4947999999999,354.7400985148735L549.1493,269.29913038648664L549.7086,-25.090429733693668L552.7907,281.991890992783L552.9096999999999,344.2915100374259L553.2191,89.23436097130173L554.6709000000001,282.5411740809679L554.8613,265.1252214450389L557.6102000000001,358.17789069870486L559.657,-184.17331724166877L560.2638999999999,278.5758938759565L561.2040000000001,290.0781768493354L562.7153000000001,286.1505354873836L564.0124000000001,358.0388165780343L564.1909,245.43341790586706L565.6427,259.567189694196L565.8212,346.1813477452844L566.5947,226.41502312645312L568.1417,213.67329164668914L568.4511,197.7610318575054L568.8557,344.69288423452525L571.1524000000001,364.7183638418093L571.7474,347.2883756391704L573.2468,339.36288874857127L573.8537,353.2851263767108L574.0798,374.20678437948226L574.4725,-167.36588849425323L575.008,380.4077508571092L575.8648,178.5704007491469L577.0072,257.99157224856316L577.0786,249.51516083702444L577.8283,199.33441976346072L577.9354,194.64822580367323L580.7914,269.8475444808602L581.6839,204.8466142851859L582.9929,305.89350432883947L584.8493000000001,268.392638175562L585.4562,304.8004944462329L588.1218,375.8185835674405L589.5855,337.7451821582392L591.3943,359.3368431672454L593.7029,250.0457912802696L594.5597,242.5779217973351L594.9524,218.73994689695533L595.4879,257.78794680982827L595.9996,289.24542622435837L599.4863,318.5053080672398L599.4982,375.91444060700013L602.9373,346.0338031293824L603.2467,346.7482652634382L605.5672,346.26729913316666L606.9952,351.1160124910995L608.447,374.6054462625645L609.2561999999999,333.497733518295L609.5894,368.87366402689366L611.2911,270.7063210316002L611.6719,198.68002353496846L612.3978,326.3038867505267L612.6834,339.6081468908116L612.7072,225.9704142928123L613.2189,186.3041998937726L613.5878,306.40101427007465L614.1947,368.94452652223407L615.825,271.29432262182235L616.2653,306.1495766162872L617.0745,353.4942378874868L618.205,231.46377183757718L618.6215,238.57066655792292L619.0618,339.5270846903324L619.2165,313.3575906164944L622.8222,366.24379908926784L625.1189,276.39137510005384L625.6424999999999,263.5842584192753L625.6901,212.6762836359441L626.1066,220.53788631483908L626.9039,286.36946926154195L626.9396,180.41642449125646L629.3434,364.2540753705427L629.629,281.6569246005267L630.938,275.9342843553051L632.0447,212.36643028706308L632.5802,347.1446668848395L632.6635,309.7044810771942L633.0681000000001,285.4779781660065L634.1272,389.89544064998626L634.4723,321.0937948551029L636.888,384.3691666729748L637.007,302.1773620162159L637.8162,274.75016178824006L639.8987,325.02906405162065L641.4576,258.31011553555726L643.8138,223.69656470865007L645.575,282.23994044847785L646.0391000000001,332.1249076284468L646.5151,352.46346639497204L647.9788,-508.2907343164088L649.8947000000001,306.07888089753686L651.3584,167.81166048049923L652.3222999999999,334.02710874825715L652.9411,381.70856217648833L653.0600999999999,320.304616808705L653.3338,266.4461622599512L655.6067,374.80335301980375L657.0823,169.8056589465588L657.3917,363.9314328905195L661.6637999999999,56.77180682569741L662.1517,341.78040319848805L662.2707,215.33956533558663L666.9236000000001,314.7524222385138L668.0422,234.4412957437336L670.9339,310.93686352279036L675.8367,249.94728775955736L676.9314999999999,355.8304531386122L681.2750000000001,320.8961645958945L682.0723,291.61624322906135L682.4055,317.3404525851831L684.0715,179.50894917622205L686.6895,157.6246654734015L686.749,282.39219869747757L688.3555,275.6131604200229L688.5221,184.41799177117645L691.4852000000001,252.61257077828049L691.509,369.1177898438647L691.9730999999999,217.0522029165178L694.841,42.40079094916581L696.8402,320.6333685785532L697.0781999999999,345.9487207353115L698.2563,334.0679777905345L698.5895,240.85443496033545L698.9584,177.3200854312628L699.7438,321.2993338357657L700.5054,296.60426770597695L701.2194,358.38561533046885L702.5522,318.1135674126446L705.4201,170.8675167176872L705.9675,301.9775373281911L706.0151,332.96972761191427L707.1098999999999,363.67763403132557L708.1214,256.35342235937713L709.7993,120.91747155673795L711.8937,354.9177199721336L712.3102,371.74725539544596L713.0837,-558.2945693165066L713.1194,305.62802233062683L714.8924999999999,353.7759323257953L717.2368,365.4507676258683L718.3911,322.2216522673145L721.4256,238.83226002827283L721.4732,273.46735136844217L724.9004000000001,332.2192944006994L725.424,318.27988756150006L728.5418,297.32339080683886L732.5758999999999,58.42054263949393L733.2899,296.631882398203L733.4446,168.694277305901L734.7893,299.27281603477894L736.6219,-147.67807003781206L737.3002,317.7596148222685L739.0019,249.85003067441284L739.1209,333.60563797205685L741.7865,306.2395920863375L742.3339,190.60733435936268L743.4644,268.7596783393994L746.3323,386.2975670784246L747.9983,269.9205224055797L748.4980999999999,316.4287902999669L748.867,297.0423283640295L751.4493000000001,265.0311945591122L751.4731,314.5858387582004L751.7111000000001,106.30231230780475L752.0323999999999,109.07659699469798L752.0561999999999,343.2488359630108L752.3656000000001,253.6237109106034L752.3774999999999,59.06805713921784L754.4957,192.36419406980272L755.7332999999999,-113.0230532839895L758.0062,359.2910981041379L758.2204,333.41737353503703L758.2323,306.4830683523789L759.5651,-307.9351700723172L760.1482,133.3361655592918L760.3148,385.75268382001667L762.6828999999999,101.71054900884621L762.6948,360.67417197655885L762.8018999999999,295.7682342154905L763.9086000000001,330.67375818528234L766.6694000000001,340.89080808945L767.1216000000001,381.2300274733454L767.7999,-91.15221704095609L767.8951,216.06149730533357L769.5016,320.6864913113415L771.0248,83.43043030500405L772.2385999999999,336.78709453698247L772.4408999999999,234.52180494815107L773.024,363.2453271656297L773.262,343.47607784466817L773.4762,328.7267819399014L774.1664000000001,-60.5339310944081L774.452,27.18121578246354L776.7963,-153.65443014279015L777.5459999999999,320.7528508387506L779.8546,351.30217027645557L780.7352,316.13960847053676L781.1398,302.52524042762815L781.3778,227.14415282271798L782.1869999999999,298.89525139033793L782.2465,367.7707616591826L784.7336,194.30134805180128L785.1382,294.8146583398804L788.0299,224.39400685280557L789.0889999999999,270.0832875797525L790.6717,237.7436477810144L793.5039,133.88800296261903L793.8609,357.7896699079312L801.2984,216.63708720616992L801.6673,283.96146985497325L805.6776000000001,283.2929678380489L806.3321000000001,277.7345762008801L810.0568000000001,364.7649515655823L811.0207,23.92408653423189L811.0683,322.75912932846694L811.58,344.2775622478686L811.7108999999999,-523.8181615129115L812.5201,341.6881055224687L813.5078,242.58122221827503L815.8402000000001,-10.03875470459468L818.3273,329.39545951113104L818.4701,358.39108823593705L822.8374000000001,150.00301041901108L822.9564,308.9292508203536L825.7291,268.8754212928936L827.2999,150.65235068351026L827.3832,304.28631344139575L828.8706999999999,283.4925204169005L829.0254,155.7635616164654L829.2039000000001,331.4547641787678L830.1320999999999,339.3781619731337L830.9651,-69.71054085269577L831.0127,329.70764773227273L834.1185999999999,308.36824948228895L834.8564,341.77704133354126L835.1063,244.53468519523736L836.3200999999999,295.49271051101385L836.4034,309.59416275173425L837.4386999999999,371.72853691764175L839.5688,350.41174128446727L843.6267,313.69309244938194L843.71,335.5750061690807L843.8409,342.9087521627545L844.2574,322.61560490615665L845.5069,-670.972063753009L845.5545,259.4884009219706L848.4819,372.767168854177L848.6961,334.08085469882934L850.2669,357.91419935440643L854.8127,344.8439574919641L855.1816,149.93284136317666L855.9551,239.40562038943168L856.3240000000001,333.61168581787496L858.1923,320.87298264987766L858.8349,327.3517265103757L860.5961,293.7352714713663L860.9412,343.69150492157786L861.1673000000001,-111.00235300809152L861.8813,391.35892717195674L862.274,284.35510649606584L863.7496,368.04992811549454L863.8805000000001,239.5372685629874L864.9396,-142.12844733819372L865.0824,340.9204767670482L866.2248000000001,323.7268899919465L866.4984999999999,342.3329910964705L866.8198,328.9931504873559L867.4029,297.25685572512447L867.8432,324.1606056809425L868.3549,224.10922265872355L868.8785,364.2601407717913L869.4616,186.80768964141606L869.6401000000001,269.2691544888541L872.1152999999999,326.9464155079797L874.9951,268.14394794665276L876.8753,321.4626695614308L878.1605000000001,200.56496766656633L878.8745,311.7551396952942L881.4687,195.29907583519812L882.8967,303.42664156369864L885.2290999999999,-161.83813986107714L886.1930000000001,234.69328639358278L888.5373000000001,85.2936232581734L890.5840999999999,369.0124440941028L890.6436,288.8638589417562L893.0117,351.0658434594981L894.0708,332.92660269681363L895.832,116.79947666153305L896.2723,316.7057623274624L897.5812999999999,-101.23795232474811L898.0930000000001,339.6591541942209L898.2834,329.2799798890948L901.2703,-382.05841107964534L902.0794999999999,390.13320262338965L903.1029,301.7319631882012L905.0664,339.59637597464024L908.6125999999999,328.21426870096474L910.2072,363.4532405182719L910.2905000000001,-38.74827380031354L911.0878,319.10032305195926L913.7772,286.57360380776225L913.8248,210.62666956596073L913.9794999999999,375.3055436655879L917.1211000000001,388.14786556786856L917.6089999999999,370.9601488898508L917.8351,389.2142548345029L921.5717000000001,326.7786733692512L922.3333,174.01423986330624L922.4404000000001,182.5311165422201L922.8807,284.4073777904734L924.7013999999999,228.97844953723248L925.2130999999999,-105.77996353358037L925.8795,245.96562833786007L928.7355,276.21119493879377L929.4257,327.3116211293265L929.4852000000001,245.30271772556003L932.6863,125.89317212142046L934.1262,275.2576366186142L934.4475000000001,249.64747611694037L934.5308,149.96777666993435L939.4693,275.96362825743853L939.7311,-401.93038600236196L942.3848,336.552071210742L942.9441,355.54413284435867L943.194,367.18740348033606L946.2403999999999,349.1349392107688L947.2638,369.5719137208536L947.2757,208.3926181428134L948.2753,302.85637095831333L948.8584,362.79456076472997L949.3581999999999,381.9794688027352L951.6549000000001,356.60057915402575L951.7382,364.9471154904924L952.2737,243.2394630860537L952.5236000000001,-109.69391165971763L954.2134,362.65560953207313L956.6529,278.13604256398975L959.2947,361.13377314787357L960.0563,353.94909031484275L962.4125,184.71596009358763L962.9956,351.69714113026856L963.8643,378.68876479361205L967.3390999999999,391.2788085758686L967.5295000000001,235.9095617316663L967.7913,162.4498457767069L969.0884,377.29367861784993L969.5644000000001,295.3500199716538L969.7310000000001,230.9265581078827L971.8968,227.15194743387397L971.9563,222.39841084256764L977.6326,184.45208441726862L978.0848,-359.53507459461696L978.9654,338.73542255051433L979.1677000000001,287.6029840324074L980.0721,327.77093263603746L980.6551999999999,300.2680246138945L980.8813,324.92026427090167L981.0479,342.38214191310107L982.0118,271.1646582119167L982.1546,303.6444430125877L983.9396,369.1961792300455L984.3918,339.6287832994014L985.3199999999999,307.13567392695694L985.7246,372.50953852226957L986.2006,266.47447916939853L986.3791,384.8016337319743L987.0693,279.1652121234685L988.9138,376.19583221413194L990.8535,336.20995975825934L994.1260000000001,290.300849930197L996.0776,-27.344160794466802L996.8154,389.3019376267213L999.4691,330.8142191849649L1000.6591000000001,315.01098739709704L1003.5745999999999,304.41827761270105L1003.6222,373.8439794632606L1005.6690000000001,345.66348010003566L1009.6079,301.7376160368323L1009.8578000000001,342.4897040359676L1010.1791,294.92448511328547L1010.3100000000001,339.2641570072621L1016.0577,270.70959511939435L1016.3909000000001,354.73478799713774L1018.7114,237.214000441879L1019.5801,266.2383235178888L1020.9724,345.9121527735144L1021.5436000000001,303.30428021289407L1022.7812000000001,341.09174754731356L1025.1017000000002,-199.38320181071765L1025.8156999999999,372.1765515048057L1027.1009,264.47316008880733L1032.3011999999999,356.7811411458999L1032.5987,280.32727629207074L1032.6939,143.58593878597017L1032.8129,106.16432662382715L1033.1698999999999,152.91485945954915L1034.0029,335.8152785690501L1034.5741,332.9709301589057L1034.8478,266.563344758749L1034.8835,381.3578441741876L1035.6689,270.37472528200595L1036.5375999999999,107.32554813176387L1039.9529,364.9855487167835L1040.2385,271.40019064564257L1041.6665,364.76611900171264L1042.2853,284.8694103889167L1042.6304,330.7068326164037L1043.4396,294.3699353959411L1045.2603000000001,368.28896285761147L1046.605,358.53081190753727L1047.3666,-870.5636858820917L1047.557,248.67472971118985L1047.9259,293.51968200672417L1048.3067,327.6547156859189L1048.747,346.52743550278245L1048.8303,-195.1506577312947L1049.6157,309.7519158504903L1049.6395,333.11182126663624L1056.0179,363.76146998982875L1056.9461000000001,366.3973344958387L1057.1484,370.02785897376015L1057.8743,166.79932657890018L1058.0528,365.33742098864167L1058.3503,182.84829050563275L1060.1709999999998,357.83595918938516L1060.7898,-781.4757745593788L1061.004,379.6184257839806L1061.4324,281.7018401695415L1062.3487,329.5816699627787L1064.3241,-275.73928291648633L1069.5839,223.113882413879L1070.9048,311.83205881416797L1071.714,378.6727498521097L1071.7259,312.6998237453401L1072.1424,342.8407819245942L1072.7969,262.3427032612264L1074.3201000000001,308.36588827688246L1074.8437,343.2580788971856L1075.5815,351.42441312810405L1075.9027999999998,319.1952452648431L1076.1051,336.1962138561532L1081.3768,373.8230753343552L1084.9349,383.00688720801844L1086.1725,190.7860661976039L1089.9091,377.12021340876817L1091.4323,336.886993714422L1092.2653,326.16673494949936L1092.4080999999999,333.19369979463517L1092.7413000000001,298.98361664991825L1094.5501,201.17343888878818L1097.4656,87.4076833136379L1097.6679,311.136582878232L1098.5128,370.35492103341966L1102.0114,210.38935525603588L1102.2613,222.53736207522448L1103.0943,369.9309178863652L1103.3561,343.0125837566331L1104.6889,281.6572230428457L1104.8674,377.88593739997594L1105.0578,371.97625720901414L1105.2244,335.02092167064546L1105.5933,335.7543085588142L1107.176,322.773796890676L1109.2942,189.19526330456134L1111.3767,350.725566549506L1112.9356,14.165619586408127L1113.0308,364.072025555931L1116.0534,374.5633263958618L1116.1605,360.3631906912662L1117.2553,236.03079953491684L1119.9447,283.0000905904919L1120.1589000000001,68.23767983615397L1120.2541,325.2637362692505L1121.7059000000002,378.0753670786973L1125.7995,333.0217970188707L1126.8348,338.27942024245857L1126.8705,390.30687410878016L1127.1204,294.1537051580846L1131.1069,376.78933304296805L1131.1426000000001,355.332603073027L1134.3437000000001,-120.27871272265918L1135.6526999999999,282.5296138299629L1135.9026,307.14754139799624L1136.8903,372.8687796860933L1136.9379,345.60630206279455L1137.6043,244.73278067335482L1137.878,381.70374321080743L1137.9851,162.36805502586063L1139.306,366.07353774625807L1142.7808,350.13062617536633L1143.3044,346.0448147731833L1143.9946,267.24052793607115L1145.8153,350.03770089270546L1145.9224,371.77951788790523L1148.3738,364.65527840219437L1148.6236999999999,375.27004219619556L1148.9926,386.68406524257733L1150.3135,362.32511977460234L1150.5634,372.3260359957814L1153.4908,375.85826761815696L1154.1572,359.2546618080698L1155.3472000000002,379.7221081566997L1156.1564,341.95878831697627L1156.5967,342.7920173274353L1157.7391,102.83125258311622L1158.3698,-104.04654032289989L1158.4531,274.57406326457857L1160.1191,374.59670804701744L1160.2619,374.1448839314282L1164.1888999999999,314.62952544707804L1164.2365,378.2958303697407L1164.534,337.0807705566287L1165.2599,251.31336358636617L1165.7121,361.10107615850865L1166.0691000000002,-799.3031035989525L1167.866,372.39176352769135L1168.2349,367.74967758711426L1168.6157,263.30065043903886L1169.3891999999998,391.5327544617932L1169.9485,365.15001237886025L1170.0794,384.95482022436335L1170.3531,250.51420527771114L1171.3764999999999,306.37694577481597L1171.6859,259.18142666369675L1172.9354,245.56309987120326L1175.1369,343.314093887154L1177.386,371.85414602309464L1177.8501,306.46962967030703L1177.8619999999999,365.06266533425077L1181.5629,330.8817285930738L1181.8366,389.929263381334L1183.2408,359.684107138589L1184.7402,360.8678083753213L1185.002,372.7702673876658L1185.5613,361.41081978594883L1188.0484,-76.07796572819359L1188.4768000000001,66.72759681269525L1189.8572000000001,5.356690765172232L1189.9524000000001,291.13533854279666L1190.952,273.3108798161149L1191.9873,347.64278467074035L1192.5347,359.2946618565358L1192.9155,206.26554951332506L1196.0214,373.10360990259795L1196.8663,-344.14177088737495L1198.0682,382.73155222442L1199.1154,151.1482915960252L1200.0079,364.2608868775889L1200.5672,292.7064354650676L1203.2566,355.73632969781755L1205.5176,350.71618317188694L1206.1245,329.76620387081056L1207.9214,361.4266503954306L1209.0042999999998,368.9626437265426L1209.159,385.59098733267746L1209.4089000000001,333.7944115165621L1211.5747,385.6659117157571L1213.2645,349.0479915522039L1214.1093999999998,-129.67093827873475L1217.5128,-120.96193496808417L1217.7508,247.83752878457304L1218.7861,341.44937800038605L1218.8932,374.3906336257234L1220.3331,368.9018668260425L1221.535,387.6218170919921L1221.5588,324.8888576056808L1222.5941,274.1983068294823L1223.0939,360.5510908531025L1223.4985,261.2353067032993L1224.2601,356.7892034773715L1226.9257,297.2860855169594L1227.5326,285.88716891855L1229.6984,374.4392533905804L1230.9836,374.0524677562527L1233.3398,387.2178995518945L1233.9348,319.60031926892697L1235.8269,336.1086385909468L1236.8503,370.90755720883607L1237.7547,394.18146954295224L1238.6709999999998,337.1420477868989L1239.8967,384.14937926600686L1242.1696,383.8194820043165L1242.3362,319.32238169275223L1242.3719,373.3044528055936L1242.3838,327.2952770235017L1244.4068,383.4019195058383L1246.1918,206.02407456636425L1246.2989,373.5205118780024L1247.3699,328.89741194695233L1248.4409,324.6597592372447L1249.6785,368.03344356622546L1250.4162999999999,344.8340781734325L1252.3202999999999,375.74765962809323L1253.4508,386.07917971704154L1253.8673000000001,339.7680505298078L1254.379,260.75363835580646L1255.8665,359.55517566790803L1256.1164,319.52753445394336L1256.3187,12.687276781350363L1259.7102,352.1215436633676L1259.9125000000001,357.71198712782933L1262.1734999999999,391.5505051964894L1263.8394999999998,376.2855229087174L1266.3028000000002,369.1134975410998L1267.3143,346.21895586634054L1268.9922000000001,254.05178252868353L1269.9561,331.68353777173905L1270.3011999999999,371.48389321547L1271.039,360.6476149990223L1272.1576,378.8064542054664L1273.1571999999999,362.7375319486484L1273.2881,388.45769038917496L1283.6173,393.26422243639826L1284.1409,357.98494335059075L1285.2238,329.13514758720993L1285.8902,379.6477894359734L1285.9497000000001,362.6014466400258L1287.0921,334.2300495252013L1287.5323999999998,273.7444199508056L1288.6034,176.19755609221752L1289.1270000000002,315.9160576181486L1289.8886,374.8749791763723L1290.2813,380.7527392057702L1291.6141,356.8277244808152L1293.6252,370.5736134204082L1294.1012,393.3177116387989L1294.2083,85.79865788370364L1294.8866,387.7288020800799L1295.8624,346.63691555643453L1296.1837,346.8295907953754L1296.9096,268.0764560939744L1297.8259,349.68116326518356L1299.0635,383.581171423709L1299.361,327.7203554406762L1300.3606,348.34371156785636L1301.6577,331.29200778231024L1302.693,376.91288377419113L1303.526,301.7537670329213L1303.6807,336.42608466353266L1304.0734,331.3766951791942L1305.6323,386.7984981220681L1305.8584,213.19327350966628L1308.5002,177.07444984726604L1308.6549,297.28077499922364L1309.1309,323.288732779026" style="fill: none;" fill="none"></path></g></g></g></g></g></g><g transform="translate(70, 377)" clip-path="url(#clip_1)"><clipPath id="clip_1"><rect width="1428" height="23"></rect></clipPath><g><g><line x1="0" y1="0" x2="0" y2="5" style="visibility: inherit;" fill="rgb(0, 0, 0)" stroke="rgb(204, 204, 204)" stroke-width="1px"></line><line x1="119" y1="0" x2="119" y2="5" style="visibility: inherit;" fill="rgb(0, 0, 0)" stroke="rgb(204, 204, 204)" stroke-width="1px"></line><line x1="238" y1="0" x2="238" y2="5" style="visibility: inherit;" fill="rgb(0, 0, 0)" stroke="rgb(204, 204, 204)" stroke-width="1px"></line><line x1="357" y1="0" x2="357" y2="5" style="visibility: inherit;" fill="rgb(0, 0, 0)" stroke="rgb(204, 204, 204)" stroke-width="1px"></line><line x1="476" y1="0" x2="476" y2="5" style="visibility: inherit;" fill="rgb(0, 0, 0)" stroke="rgb(204, 204, 204)" stroke-width="1px"></line><line x1="595" y1="0" x2="595" y2="5" style="visibility: inherit;" fill="rgb(0, 0, 0)" stroke="rgb(204, 204, 204)" stroke-width="1px"></line><line x1="714" y1="0" x2="714" y2="5" style="visibility: inherit;" fill="rgb(0, 0, 0)" stroke="rgb(204, 204, 204)" stroke-width="1px"></line><line x1="833" y1="0" x2="833" y2="5" style="visibility: inherit;" fill="rgb(0, 0, 0)" stroke="rgb(204, 204, 204)" stroke-width="1px"></line><line x1="952" y1="0" x2="952" y2="5" style="visibility: inherit;" fill="rgb(0, 0, 0)" stroke="rgb(204, 204, 204)" stroke-width="1px"></line><line x1="1071" y1="0" x2="1071" y2="5" style="visibility: inherit;" fill="rgb(0, 0, 0)" stroke="rgb(204, 204, 204)" stroke-width="1px"></line><line x1="1190" y1="0" x2="1190" y2="5" style="visibility: inherit;" fill="rgb(0, 0, 0)" stroke="rgb(204, 204, 204)" stroke-width="1px"></line><line x1="1309" y1="0" x2="1309" y2="5" style="visibility: inherit;" fill="rgb(0, 0, 0)" stroke="rgb(204, 204, 204)" stroke-width="1px"></line><line x1="1428" y1="0" x2="1428" y2="5" style="visibility: inherit;" fill="rgb(0, 0, 0)" stroke="rgb(204, 204, 204)" stroke-width="1px"></line></g><g transform="translate(0, 8)"><text x="0" y="0" dx="0em" dy="0.95em" style="text-anchor: middle; visibility: hidden; font-family: &quot;Helvetica Neue&quot;, sans-serif; font-size: 12px; font-weight: 200;" fill="rgb(33, 33, 33)" stroke="none" stroke-width="1px">-1M</text><text x="119" y="0" dx="0em" dy="0.95em" style="text-anchor: middle; visibility: inherit; font-family: &quot;Helvetica Neue&quot;, sans-serif; font-size: 12px; font-weight: 200;" fill="rgb(33, 33, 33)" stroke="none" stroke-width="1px">0</text><text x="238" y="0" dx="0em" dy="0.95em" style="text-anchor: middle; visibility: inherit; font-family: &quot;Helvetica Neue&quot;, sans-serif; font-size: 12px; font-weight: 200;" fill="rgb(33, 33, 33)" stroke="none" stroke-width="1px">1M</text><text x="357" y="0" dx="0em" dy="0.95em" style="text-anchor: middle; visibility: inherit; font-family: &quot;Helvetica Neue&quot;, sans-serif; font-size: 12px; font-weight: 200;" fill="rgb(33, 33, 33)" stroke="none" stroke-width="1px">2M</text><text x="476" y="0" dx="0em" dy="0.95em" style="text-anchor: middle; visibility: inherit; font-family: &quot;Helvetica Neue&quot;, sans-serif; font-size: 12px; font-weight: 200;" fill="rgb(33, 33, 33)" stroke="none" stroke-width="1px">3M</text><text x="595" y="0" dx="0em" dy="0.95em" style="text-anchor: middle; visibility: inherit; font-family: &quot;Helvetica Neue&quot;, sans-serif; font-size: 12px; font-weight: 200;" fill="rgb(33, 33, 33)" stroke="none" stroke-width="1px">4M</text><text x="714" y="0" dx="0em" dy="0.95em" style="text-anchor: middle; visibility: inherit; font-family: &quot;Helvetica Neue&quot;, sans-serif; font-size: 12px; font-weight: 200;" fill="rgb(33, 33, 33)" stroke="none" stroke-width="1px">5M</text><text x="833" y="0" dx="0em" dy="0.95em" style="text-anchor: middle; visibility: inherit; font-family: &quot;Helvetica Neue&quot;, sans-serif; font-size: 12px; font-weight: 200;" fill="rgb(33, 33, 33)" stroke="none" stroke-width="1px">6M</text><text x="952" y="0" dx="0em" dy="0.95em" style="text-anchor: middle; visibility: inherit; font-family: &quot;Helvetica Neue&quot;, sans-serif; font-size: 12px; font-weight: 200;" fill="rgb(33, 33, 33)" stroke="none" stroke-width="1px">7M</text><text x="1071" y="0" dx="0em" dy="0.95em" style="text-anchor: middle; visibility: inherit; font-family: &quot;Helvetica Neue&quot;, sans-serif; font-size: 12px; font-weight: 200;" fill="rgb(33, 33, 33)" stroke="none" stroke-width="1px">8M</text><text x="1190" y="0" dx="0em" dy="0.95em" style="text-anchor: middle; visibility: inherit; font-family: &quot;Helvetica Neue&quot;, sans-serif; font-size: 12px; font-weight: 200;" fill="rgb(33, 33, 33)" stroke="none" stroke-width="1px">9M</text><text x="1309" y="0" dx="0em" dy="0.95em" style="text-anchor: middle; visibility: inherit; font-family: &quot;Helvetica Neue&quot;, sans-serif; font-size: 12px; font-weight: 200;" fill="rgb(33, 33, 33)" stroke="none" stroke-width="1px">10M</text><text x="1428" y="0" dx="0em" dy="0.95em" style="text-anchor: middle; visibility: hidden; font-family: &quot;Helvetica Neue&quot;, sans-serif; font-size: 12px; font-weight: 200;" fill="rgb(33, 33, 33)" stroke="none" stroke-width="1px">11M</text></g><line x1="0" y1="0" x2="1428" y2="0" fill="rgb(0, 0, 0)" stroke="rgb(204, 204, 204)" stroke-width="1px"></line></g></g></g></g></svg>