<svg viewBox="0 0 1498 400" xmlns="http://www.w3.org/2000/svg"><g><g><g><g><g><line x1="50" y1="377" x2="45" y2="377" style="visibility: inherit;" fill="rgb(0, 0, 0)" stroke="rgb(204, 204, 204)" stroke-width="1px"></line><line x1="50" y1="339.3" x2="45" y2="339.3" style="visibility: inherit;" fill="rgb(0, 0, 0)" stroke="rgb(204, 204, 204)" stroke-width="1px"></line><line x1="50" y1="301.6" x2="45" y2="301.6" style="visibility: inherit;" fill="rgb(0, 0, 0)" stroke="rgb(204, 204, 204)" stroke-width="1px"></line><line x1="50" y1="263.9" x2="45" y2="263.9" style="visibility: inherit;" fill="rgb(0, 0, 0)" stroke="rgb(204, 204, 204)" stroke-width="1px"></line><line x1="50" y1="226.2" x2="45" y2="226.2" style="visibility: inherit;" fill="rgb(0, 0, 0)" stroke="rgb(204, 204, 204)" stroke-width="1px"></line><line x1="50" y1="188.5" x2="45" y2="188.5" style="visibility: inherit;" fill="rgb(0, 0, 0)" stroke="rgb(204, 204, 204)" stroke-width="1px"></line><line x1="50" y1="150.8" x2="45" y2="150.8" style="visibility: inherit;" fill="rgb(0, 0, 0)" stroke="rgb(204, 204, 204)" stroke-width="1px"></line><line x1="50" y1="113.10000000000002" x2="45" y2="113.10000000000002" style="visibility: inherit;" fill="rgb(0, 0, 0)" stroke="rgb(204, 204, 204)" stroke-width="1px"></line><line x1="50" y1="75.39999999999998" x2="45" y2="75.39999999999998" style="visibility: inherit;" fill="rgb(0, 0, 0)" stroke="rgb(204, 204, 204)" stroke-width="1px"></line><line x1="50" y1="37.700000000000045" x2="45" y2="37.700000000000045" style="visibility: inherit;" fill="rgb(0, 0, 0)" stroke="rgb(204, 204, 204)" stroke-width="1px"></line><line x1="50" y1="0" x2="45" y2="0" style="visibility: inherit;" fill="rgb(0, 0, 0)" stroke="rgb(204, 204, 204)" stroke-width="1px"></line></g><g transform="translate(40, 0)"><text x="0" y="377" dx="0em" dy="0.3em" style="text-anchor: end; visibility: hidden; font-family: &quot;Helvetica Neue&quot;, sans-serif; font-size: 12px; font-weight: 200;" fill="rgb(33, 33, 33)" stroke="none" stroke-width="1px">0</text><text x="0" y="339.3" dx="0em" dy="0.3em" style="text-anchor: end; visibility: inherit; font-family: &quot;Helvetica Neue&quot;, sans-serif; font-size: 12px; font-weight: 200;" fill="rgb(33, 33, 33)" stroke="none" stroke-width="1px">1e-3</text><text x="0" y="301.6" dx="0em" dy="0.3em" style="text-anchor: end; visibility: inherit; font-family: &quot;Helvetica Neue&quot;, sans-serif; font-size: 12px; font-weight: 200;" fill="rgb(33, 33, 33)" stroke="none" stroke-width="1px">2e-3</text><text x="0" y="263.9" dx="0em" dy="0.3em" style="text-anchor: end; visibility: inherit; font-family: &quot;Helvetica Neue&quot;, sans-serif; font-size: 12px; font-weight: 200;" fill="rgb(33, 33, 33)" stroke="none" stroke-width="1px">3e-3</text><text x="0" y="226.2" dx="0em" dy="0.3em" style="text-anchor: end; visibility: inherit; font-family: &quot;Helvetica Neue&quot;, sans-serif; font-size: 12px; font-weight: 200;" fill="rgb(33, 33, 33)" stroke="none" stroke-width="1px">4e-3</text><text x="0" y="188.5" dx="0em" dy="0.3em" style="text-anchor: end; visibility: inherit; font-family: &quot;Helvetica Neue&quot;, sans-serif; font-size: 12px; font-weight: 200;" fill="rgb(33, 33, 33)" stroke="none" stroke-width="1px">5e-3</text><text x="0" y="150.8" dx="0em" dy="0.3em" style="text-anchor: end; visibility: inherit; font-family: &quot;Helvetica Neue&quot;, sans-serif; font-size: 12px; font-weight: 200;" fill="rgb(33, 33, 33)" stroke="none" stroke-width="1px">6e-3</text><text x="0" y="113.10000000000002" dx="0em" dy="0.3em" style="text-anchor: end; visibility: inherit; font-family: &quot;Helvetica Neue&quot;, sans-serif; font-size: 12px; font-weight: 200;" fill="rgb(33, 33, 33)" stroke="none" stroke-width="1px">7e-3</text><text x="0" y="75.39999999999998" dx="0em" dy="0.3em" style="text-anchor: end; visibility: inherit; font-family: &quot;Helvetica Neue&quot;, sans-serif; font-size: 12px; font-weight: 200;" fill="rgb(33, 33, 33)" stroke="none" stroke-width="1px">8e-3</text><text x="0" y="37.700000000000045" dx="0em" dy="0.3em" style="text-anchor: end; visibility: inherit; font-family: &quot;Helvetica Neue&quot;, sans-serif; font-size: 12px; font-weight: 200;" fill="rgb(33, 33, 33)" stroke="none" stroke-width="1px">9e-3</text><text x="0" y="0" dx="0em" dy="0.3em" style="text-anchor: end; visibility: hidden; font-family: &quot;Helvetica Neue&quot;, sans-serif; font-size: 12px; font-weight: 200;" fill="rgb(33, 33, 33)" stroke="none" stroke-width="1px">0.01</text></g><line x1="50" y1="0" x2="50" y2="377" fill="rgb(0, 0, 0)" stroke="rgb(204, 204, 204)" stroke-width="1px"></line></g></g><g transform="translate(50, 0)" clip-path="url(#clip_0)"><clipPath id="clip_0"><rect width="1448" height="377"></rect></clipPath><g><g><g><line x1="0" y1="0" x2="0" y2="377" fill="rgb(0, 0, 0)" stroke="rgb(66, 66, 66)" stroke-width="1px" opacity="0.25"></line><line x1="120.66666666666666" y1="0" x2="120.66666666666666" y2="377" fill="rgb(0, 0, 0)" stroke="rgb(66, 66, 66)" stroke-width="1px" opacity="0.25"></line><line x1="241.33333333333331" y1="0" x2="241.33333333333331" y2="377" fill="rgb(0, 0, 0)" stroke="rgb(66, 66, 66)" stroke-width="1px" opacity="0.25"></line><line x1="362" y1="0" x2="362" y2="377" fill="rgb(0, 0, 0)" stroke="rgb(66, 66, 66)" stroke-width="1px" opacity="0.25"></line><line x1="482.66666666666663" y1="0" x2="482.66666666666663" y2="377" fill="rgb(0, 0, 0)" stroke="rgb(66, 66, 66)" stroke-width="1px" opacity="0.25"></line><line x1="603.3333333333334" y1="0" x2="603.3333333333334" y2="377" fill="rgb(0, 0, 0)" stroke="rgb(66, 66, 66)" stroke-width="1px" opacity="0.25"></line><line x1="724" y1="0" x2="724" y2="377" fill="rgb(0, 0, 0)" stroke="rgb(66, 66, 66)" stroke-width="1px" opacity="0.25"></line><line x1="844.6666666666667" y1="0" x2="844.6666666666667" y2="377" fill="rgb(0, 0, 0)" stroke="rgb(66, 66, 66)" stroke-width="1px" opacity="0.25"></line><line x1="965.3333333333333" y1="0" x2="965.3333333333333" y2="377" fill="rgb(0, 0, 0)" stroke="rgb(66, 66, 66)" stroke-width="1px" opacity="0.25"></line><line x1="1086" y1="0" x2="1086" y2="377" fill="rgb(0, 0, 0)" stroke="rgb(66, 66, 66)" stroke-width="1px" opacity="0.25"></line><line x1="1206.6666666666667" y1="0" x2="1206.6666666666667" y2="377" fill="rgb(0, 0, 0)" stroke="rgb(66, 66, 66)" stroke-width="1px" opacity="0.25"></line><line x1="1327.3333333333333" y1="0" x2="1327.3333333333333" y2="377" fill="rgb(0, 0, 0)" stroke="rgb(66, 66, 66)" stroke-width="1px" opacity="0.25"></line><line x1="1448" y1="0" x2="1448" y2="377" fill="rgb(0, 0, 0)" stroke="rgb(66, 66, 66)" stroke-width="1px" opacity="0.25"></line></g><g><line x1="0" y1="377" x2="1448" y2="377" fill="rgb(0, 0, 0)" stroke="rgb(66, 66, 66)" stroke-width="1px" opacity="0.25"></line><line x1="0" y1="339.3" x2="1448" y2="339.3" fill="rgb(0, 0, 0)" stroke="rgb(66, 66, 66)" stroke-width="1px" opacity="0.25"></line><line x1="0" y1="301.6" x2="1448" y2="301.6" fill="rgb(0, 0, 0)" stroke="rgb(66, 66, 66)" stroke-width="1px" opacity="0.25"></line><line x1="0" y1="263.9" x2="1448" y2="263.9" fill="rgb(0, 0, 0)" stroke="rgb(66, 66, 66)" stroke-width="1px" opacity="0.25"></line><line x1="0" y1="226.2" x2="1448" y2="226.2" fill="rgb(0, 0, 0)" stroke="rgb(66, 66, 66)" stroke-width="1px" opacity="0.25"></line><line x1="0" y1="188.5" x2="1448" y2="188.5" fill="rgb(0, 0, 0)" stroke="rgb(66, 66, 66)" stroke-width="1px" opacity="0.25"></line><line x1="0" y1="150.8" x2="1448" y2="150.8" fill="rgb(0, 0, 0)" stroke="rgb(66, 66, 66)" stroke-width="1px" opacity="0.25"></line><line x1="0" y1="113.10000000000002" x2="1448" y2="113.10000000000002" fill="rgb(0, 0, 0)" stroke="rgb(66, 66, 66)" stroke-width="1px" opacity="0.25"></line><line x1="0" y1="75.39999999999998" x2="1448" y2="75.39999999999998" fill="rgb(0, 0, 0)" stroke="rgb(66, 66, 66)" stroke-width="1px" opacity="0.25"></line><line x1="0" y1="37.700000000000045" x2="1448" y2="37.700000000000045" fill="rgb(0, 0, 0)" stroke="rgb(66, 66, 66)" stroke-width="1px" opacity="0.25"></line><line x1="0" y1="0" x2="1448" y2="0" fill="rgb(0, 0, 0)" stroke="rgb(66, 66, 66)" stroke-width="1px" opacity="0.25"></line></g></g></g><g><g><line x1="0" y1="377" x2="1448" y2="377" fill="rgb(0, 0, 0)" stroke="rgb(153, 153, 153)" stroke-width="1.5px"></line></g></g><g><g><line x1="120.66666666666666" y1="0" x2="120.66666666666666" y2="377" fill="rgb(0, 0, 0)" stroke="rgb(153, 153, 153)" stroke-width="1.5px"></line></g></g><g><g><g><g><g><path stroke="rgb(255, 112, 67)" stroke-width="2px" d="M138.30813333333333,-146.3460202503402L139.20106666666666,60.99231563626455L139.4424,-69.24411811655352L141.34893333333335,-119.78225158422032L141.904,72.58527806586716L142.31426666666667,-47.2715129394183L144.8,111.82466525577536L145.29473333333334,-8.231896614863558L146.01873333333333,139.94852831045284L146.91166666666666,222.281735118628L147.53913333333335,264.9221014714956L148.04593333333332,293.3324528678114L148.6372,69.94620307917836L149.0716,191.49975413851493L149.34913333333336,30.04049726769165L151.18326666666667,-72.07875874918L151.50906666666666,106.34222649811016L151.8952,212.46299655572167L154.15166666666667,272.9492963356905L155.1894,282.208200862704L155.9496,312.637437651954L156.384,-53.72588725751001L160.52286666666666,-29.81893740510509L162.07946666666666,77.10727273932679L166.0132,169.95199936271104L167.72666666666666,191.9275263313725L168.20933333333335,232.47711014559468L169.8866,228.48122821844214L173.42213333333333,242.75559307961464L174.15820000000002,249.48030446059084L176.28193333333334,270.73083267740924L177.018,281.2468277752442L178.51426666666666,258.18623514460705L178.52633333333333,282.98678752414514L180.40873333333334,285.0246543928037L180.83106666666666,269.57068456339465L181.8688,-87.60084878953501L182.5566,67.77569258455895L184.5114,174.7258490822526L185.03026666666668,216.27465069944543L186.3214,229.6086786461181L187.31086666666664,241.1005159269961L187.3229333333333,239.47992485245896L188.10726666666665,260.5484483510136L189.38633333333334,158.1546124467182L190.8826,194.97917694486713L192.25820000000002,181.08592558285656L192.95806666666667,215.33758133730097L194.9732,146.71503509924688L195.661,221.60453497118488L196.69873333333334,159.83775713589978L196.7108,220.3982484796153L200.72899999999998,162.93342897346372L202.2132,213.8579183436245L202.56313333333333,89.34519563864313L203.50433333333334,137.63377336562112L204.21626666666668,199.19827834122182L204.59033333333335,227.40963610211205L204.72306666666665,240.5035490331006L205.02473333333333,170.4211304239601L205.94179999999997,225.76552822900834L205.95386666666664,238.6799536043437L206.65373333333332,219.23421818801947L208.16206666666665,196.42166271009557L209.9238,162.24040435074875L212.50606666666664,80.1857928891128L213.19386666666665,156.7010475868223L214.8108,213.44258570517528L215.32966666666667,258.9365125734459L215.4262,257.8676835686773L216.46393333333333,170.154112132836L217.2603333333333,208.15128688958205L217.32066666666668,214.26405386148045L217.57406666666665,244.19808600630253L218.98586666666665,255.21287826879853L219.54093333333336,262.6846346366944L219.6254,277.0350938738759L221.70086666666668,256.0164127350673L222.71446666666665,172.78216478382498L223.61946666666668,163.1012531192896L223.99353333333335,228.934037603247L225.21226666666666,228.12262675378196L226.22586666666666,200.2707473067252L227.85486666666665,133.80514197366287L229.25459999999998,205.42852173208058L232.89873333333333,231.5176504803232L233.9244,180.5754587130267L235.61373333333336,142.99023257950063L237.6892,147.46280311202474L237.8098666666667,213.2849288457958L238.40113333333332,223.6442721239822L240.13873333333333,212.75825543863158L241.32126666666665,107.62422444172256L241.76773333333335,186.76995139977367L242.05733333333333,225.5985576844128L242.3228,177.33296456849052L243.81906666666666,207.90989852311L245.44806666666668,141.8464907444226L249.45420000000001,213.66704590539376L249.8886,241.41820790124083L250.63673333333335,276.08136493099266L255.47546666666668,236.48598869447432L256.39253333333335,153.33768111648868L257.1286,206.73171133284396L259.32473333333337,223.20152205629424L259.43333333333334,259.8100065966891L261.5932666666667,275.48280617701687L262.08799999999997,276.1989950391363L262.5706666666667,176.29014306829637L262.67926666666665,128.65854792485393L263.5722,198.04483747334632L263.77733333333333,161.98073123828382L264.70646666666664,226.49291653818375L267.0474,222.8726943165748L268.5316,197.6317913163119L268.65226666666666,250.67849299145718L270.96906666666666,264.74426293795096L272.19986666666665,287.76141384385403L272.6222,215.25847450430615L273.0204,243.3753677891816L275.2648,234.92766575438532L275.6992,239.10148013411612L276.29046666666665,233.65916268842608L276.5076666666667,260.2363609362674L276.62833333333333,266.51380181023666L278.1125333333333,277.733642054106L280.89993333333337,286.2595532018722L283.47013333333337,262.2259612145293L284.3148,232.05828288196136L287.1384,76.09131967722539L293.2803333333334,178.3721541405419L294.3784,232.33724887650905L295.1748,247.18454341803013L297.021,266.08381396883146L300.76166666666666,174.8590527734364L302.6440666666667,209.88118696950104L303.8024666666667,126.62725315536397L305.14186666666666,203.61377653841876L305.26253333333335,186.59665721127215L307.8206666666667,234.98942875210238L309.8358,227.1417114591229L311.42859999999996,261.7654965262489L313.13,263.6019732797668L314.5176666666667,36.76611551907814L317.3774666666667,94.05448626960612L320.20106666666663,152.80367343193467L320.8406,118.31781222859723L321.23879999999997,26.819429814456157L321.5646,83.43472113066213L322.0834666666667,174.80433413317527L323.42286666666666,170.74170317906575L323.85726666666665,203.42395649460516L324.6536666666667,133.42283870492918L325.23286666666667,192.86000873499836L327.2359333333333,246.67442930179075L328.91319999999996,279.83699097372437L330.07160000000005,-25.66358584381726L331.3627333333333,20.305061242177544L332.19533333333334,131.90490034033022L332.9796666666667,203.94036667493978L333.41406666666666,242.62330435185433L333.8726,273.93503508064924L334.9224,281.60950354691613L336.15319999999997,222.99988815162345L338.4096666666667,234.04701669014256L341.2574,255.09845985172245L343.0915333333333,281.570539798278L343.2846,310.26380987074276L345.17906666666664,278.23570785883845L345.2394,-74.89811005613933L346.9528666666667,59.97078913794911L350.0419333333333,161.40720990823635L350.5004666666666,171.79209973977166L351.3330666666667,162.5051636185715L355.0496,213.19876772829704L355.10993333333334,214.06218865912447L355.3874666666667,222.09194309950644L355.8098,251.84625959659084L357.37846666666667,140.73671298780718L358.54893333333337,-0.09452946151088781L360.7450666666667,31.556992640109115L361.5656,119.78305847533721L363.267,192.62911929205464L366.4164,227.1984554843033L367.9006,15.486171860452032L370.3018666666666,149.87639295526924L371.2189333333334,142.90199110936274L374.03046666666665,20.990618813223534L374.8389333333334,14.351237880102929L376.1059333333333,129.8437286280317L377.15573333333333,180.1568836406006L377.5177333333333,250.0329897571807L387.7623333333333,266.9878564387831L389.16206666666665,251.57452644245464L390.0791333333333,240.5119219010272L390.4894,34.27297622771255L391.9736,-10.320665254824178L393.3854,-110.3854871836113L395.30400000000003,11.405271224867874L395.90733333333327,139.78533113479858L396.2934666666667,186.63114925089627L397.37946666666664,182.06790665753573L397.95866666666666,-100.37415484805177L398.8274666666666,77.40770882349153L399.286,128.92982318762503L399.58766666666673,124.8897169993136L400.44440000000003,188.26556272526466L401.63899999999995,219.02369071674278L402.64053333333334,257.5196293190535L402.71293333333335,254.44150485071037L403.5938,283.1681743459999L405.7778666666667,221.45478918386098L406.5863333333333,245.48909584273457L407.05693333333335,280.7704134747136L407.2982666666667,280.37896726554624L407.57579999999996,249.55055621728891L410.08566666666667,296.8513843528738L415.20193333333333,239.82434478997055L415.7328666666667,280.37175607665694L415.7690666666667,290.895179319102L417.96520000000004,196.7527499051204L418.9064,141.6999417872018L420.33026666666666,135.66508225386062L422.092,200.73714070266317L424.61393333333336,156.9384408563127L425.0121333333333,174.30426834492386L426.23086666666666,220.04396738801003L431.6970666666666,-4.805641545691458L433.26573333333334,131.65306936292296L435.4618666666667,219.13669945575862L435.4739333333334,221.62847065048257L436.76506666666666,265.7294853638371L436.934,290.12837916360115L439.46799999999996,184.3397248923529L441.92960000000005,204.67340148439996L443.79993333333334,261.3504223569169L444.24640000000005,269.693451711919L445.95986666666664,301.66251112372345L446.6718,101.57905963719287L446.93726666666663,160.97108810602364L449.78499999999997,227.83817449746275L450.34006666666664,162.93132518999423L452.9464666666667,234.99155725766434L454.40653333333336,235.95665734993943L455.1546666666667,213.55822193242628L455.939,2.008605960711918L460.3312666666667,99.94598792490666L461.48966666666666,169.21055315507832L463.25140000000005,239.37647200661678L463.92713333333336,272.6704668945091L464.05986666666666,-267.82146678888694L465.0976,-51.45253543234702L465.6044,77.09645493185911L467.7160666666667,30.075729884841394L467.9574,156.4316787598734L469.3088666666667,222.61456711590768L471.64979999999997,265.2551704790472L472.49446666666665,297.8038279661553L472.68753333333336,273.28177399927483L474.7750666666667,72.61057919558345L475.6076666666667,71.32415498373786L476.9229333333333,64.83486188547539L479.17940000000004,151.36417197531006L479.65,222.09010910448754L479.75859999999994,274.31693538513673L479.9637333333334,298.63245999619005L481.1100666666666,318.2651462455743L481.6048,179.0199237004014L481.9668,221.85387812838505L481.9909333333333,224.56716302505464L483.8492,-68.50931089239526L484.3680666666667,88.71671677199186L486.7572666666667,61.346077500684146L488.86893333333336,150.0212204453517L489.3998666666667,232.464234989154L490.5462,201.1517970584438L490.57033333333334,195.35853393734132L491.41499999999996,73.82614686853077L492.18726666666663,154.2504545186691L494.5402666666667,221.17494279222836L494.7454,66.70419037090033L494.9626,109.97142130655817L496.6881333333334,186.85232891714736L497.0863333333333,246.14331734486618L500.28399999999993,222.21625393067717L501.4424,142.87774710914448L502.10606666666666,179.869578958666L508.76686666666666,191.79380321420174L509.2857333333333,197.32408124605982L510.6854666666667,208.68418012648922L511.0957333333333,169.22057837674083L511.5784,135.43218870642224L511.72319999999996,136.9479370649602L515.4035333333334,195.72284482559243L515.5362666666666,231.82402837099542L516.031,198.1414438795859L516.3567999999999,252.8243324029782L516.5619333333334,38.747850204607175L517.66,157.98285787186046L521.0748666666667,231.84662236360697L521.2196666666666,40.67661591820706L521.6661333333334,138.5641977016794L522.4142666666667,210.9657912030618L523.1141333333334,256.0903288917497L524.2725333333333,295.14465697900613L525.1654666666667,292.54834452298974L526.4083333333333,309.96092368194576L530.4144666666667,284.84939539524385L531.1988,271.5762501818983L532.1279333333333,213.51449414569424L532.6106,272.32031896324924L532.9605333333333,64.5248693383453L534.3844,121.0215526793431L535.1687333333333,177.9311262253094L536.9063333333334,235.98972267557195L537.5217333333333,268.0348960373119L539.1386666666667,257.7233713299522L539.1628000000001,281.08759874082295L540.8642,297.641197289015L541.5882,309.88622821307786L543.5068,329.5960609569161L544.5928,70.84889894747784L545.2202666666667,144.2734651637766L545.6546666666667,194.74424075619538L547.4043333333333,189.9351841109166L547.9594,230.10405728278573L548.8282,218.2910221118213L549.154,264.86558070993317L553.0394666666667,237.66481828594738L554.3547333333333,151.9243671292337L554.7167333333333,87.18073426003883L556.1768,171.86710535774012L556.8404666666667,203.08058607825268L557.4076,258.73986167646126L560.5328666666667,258.394714659075L560.6535333333334,261.1775620441854L560.9672666666667,259.6691055535507L562.4394,293.997500726777L562.6324666666667,-165.9186561887277L568.1107333333333,-67.31602828350668L569.0640000000001,8.888374569880966L570.5964666666666,127.84245546258575L571.9117333333334,192.9380651442533L572.0927333333334,219.18633577545438L573.5648666666667,258.0959336339009L573.7458666666666,211.12224089673592L574.5302,253.44348878195245L576.0988666666666,280.9401048855803L576.4126,289.7268025315894L576.8228666666666,304.0689361247923L579.1517333333334,286.65500722548404L579.7550666666666,312.7660639438915L581.2754666666666,325.5675376018964L581.8908666666666,322.60655856235815L582.1201333333333,130.28245388927454L582.5183333333333,193.08545606560943L583.0613333333333,-31.417269213632153L583.9301333333333,16.74112846038622L585.0885333333333,141.51396065440406L585.1609333333333,128.027375172744L585.9211333333334,205.7814300275861L586.0297333333333,168.30107721787806L588.9257333333334,238.97449695417052L589.8307333333333,265.60366200621434L591.1580666666666,200.92953467870063L593.0404666666667,214.7740542665381L593.6558666666666,256.2074912570571L596.3588,69.12204143599598L597.843,176.16183031280897L599.6771333333334,232.33683718252217L602.0180666666666,261.89667411376854L602.8868666666666,247.22580626296892L603.2850666666667,228.9348843257898L603.8280666666666,261.6318187938272L604.3469333333334,226.98713909468887L607.8824666666667,234.00457650687895L607.8945333333334,260.99560111845494L611.3818,298.3401559290884L611.6955333333333,234.95715835974204L614.0485333333334,244.129172551099L615.4965333333333,98.82574848381495L616.9686666666666,148.3718333768714L617.7891999999999,225.11526917049997L618.1270666666667,175.92210530939525L619.8525999999999,232.6164532092382L620.2387333333334,281.1659230952886L620.9748,191.33416705372494L621.2644,251.42189011878557L621.2885333333334,281.52028720639964L621.8074,286.47316255234375L622.1814666666667,302.34288714900725L622.7968666666667,304.4490692966438L624.45,236.20196361859183L624.8964666666667,275.94574092712725L625.717,291.07891007519794L626.8633333333333,311.4892022949131L627.2856666666667,307.23308332848086L627.7321333333333,260.54407297723014L627.889,267.59543429107975L631.5452,299.0731026139722L633.8740666666667,266.51413765292557L634.405,212.64733064020393L634.4532666666667,213.71679050978852L634.8756,-20.04056061055161L635.6840666666667,125.2881634205824L635.7202666666667,218.13686573579514L638.1577333333333,268.09424780986967L638.4473333333334,290.1860113698677L639.7746666666667,304.13302382243785L640.8968666666667,310.3027471730895L641.4398666666667,331.0446975071043L641.5243333333333,273.45303849809227L641.9346,258.81327810731744L643.0085333333333,295.3206297014115L643.3584666666667,322.35485639721463L645.808,312.2481825473923L645.9286666666667,309.87473702120894L646.7492,289.2673241008109L648.8608666666667,280.3577394330523L650.4416,301.99673583360146L652.8308,321.1423320554294L654.6166666666667,333.37146290585986L655.0872666666667,336.0817266807442L655.5699333333333,337.4358003500393L657.0541333333333,309.9313772373373L658.9968666666666,322.21929237711277L660.4810666666667,265.2764366513064L661.4584666666666,125.07727808478896L662.0859333333333,198.9385668572317L662.2066,236.83556670689768L662.4841333333334,152.22161372151484L664.7888666666666,225.3874469557197L666.2851333333333,277.29639789998777L666.5988666666666,300.6011831490859L670.9308,171.87152500621463L671.4255333333333,232.4426607568755L671.5462,260.74309941483705L676.2642666666667,292.7241128458271L677.3985333333334,311.3107416804099L680.3307333333333,303.5752034474441L685.3022,317.7060164852979L686.4123333333333,273.0129200231458L690.8166666666667,301.05303469061033L691.6251333333333,132.19453749513133L691.963,107.66420985284748L693.6523333333333,210.24273384069014L696.307,268.91133783320845L696.3673333333334,303.93165296109925L697.9963333333333,310.91375613330996L698.1652666666668,331.44263493787764L701.1698666666667,322.74997933575673L701.1940000000001,327.6117297624821L701.6646,335.8272959842138L704.5726666666667,343.21692309588803L706.5998666666667,352.48168963593236L706.8412,335.03115323649047L708.0358,344.3104019579325L708.3736666666667,342.63380197015607L708.7477333333334,320.88707688645843L709.5441333333333,323.10149087538616L710.3163999999999,234.72225089463768L711.0404,8.280556038577458L712.3918666666667,150.83686659900272L715.2999333333333,234.69653328557007L715.855,276.44913617625355L715.9032666666667,299.6434667817027L717.0133999999999,324.54334200343243L718.0390666666667,311.1528057745591L719.7404666666666,301.4560620097962L721.8642,298.3489077781825L722.2865333333334,317.19904542890566L723.0708666666667,332.2657285771661L723.1070666666667,169.38527033876733L724.905,246.51759523997893L727.2821333333333,270.6619438304018L728.4526000000001,288.92041798932917L731.5296,299.28041025607183L731.5778666666666,322.6078698427358L735.0530666666667,313.60134032575064L735.5840000000001,335.45420394053656L738.7454666666666,333.4962365252411L742.8360666666666,222.00030770287728L743.5600666666667,272.6545066219468L743.7169333333334,254.44628066983216L745.0804666666667,297.6812536004604L746.9387333333333,318.9170879229335L747.6265333333333,289.00607425149843L749.3520666666667,294.7495434689615L749.4727333333334,315.1752251207065L752.1756666666666,225.03533953766413L752.7307333333333,179.34498254487147L753.8770666666666,176.38433846550723L756.7851333333333,219.43160782064518L758.4744666666667,233.7957957889469L758.9812666666666,277.4753552210268L759.3553333333333,308.14506775908535L761.9738000000001,326.9094825108036L761.9979333333334,335.3452637764884L762.2392666666667,344.7165205096609L762.5650666666666,312.30304764228504L762.5891999999999,290.6651837834265L762.9029333333334,315.15520431059133L762.915,331.5291273742245L765.0628666666668,285.93573225732604L766.3177999999999,284.57457241570035L768.6225333333334,289.0197516595875L768.8397333333334,317.5393438985064L768.8517999999999,324.2759912133285L770.2032666666667,328.7321455637779L770.7945333333333,342.6627313394571L770.9634666666666,351.0275625142738L773.3647333333333,344.9338280486038L773.3768,324.5288710036558L773.4853999999999,321.6037540179451L774.6076,335.2280397442034L777.4070666666668,286.4582560302049L777.8656,319.831301500242L778.5534,329.549156014154L778.6499333333334,346.52036236131465L780.2789333333334,346.95689397881495L781.8234666666667,241.32905901718178L783.0542666666666,292.21878132753767L783.2594,301.6550170639646L783.8506666666667,283.6960847245599L784.092,308.9059556680587L784.3091999999999,326.9650386895898L785.0090666666667,338.36237024541424L785.2986666666667,338.1103537412031L787.6758,286.12691074872276L788.4359999999999,301.5654641016305L790.7769333333333,313.005323789208L791.6698666666666,176.57255335848853L792.0801333333334,168.9114940595706L792.3214666666667,237.57513245553997L793.1419999999999,262.48929312928755L793.2023333333334,215.90372682573937L795.7242666666666,267.65384503580657L796.1345333333333,304.11050271900945L799.0667333333333,299.3142359158394L800.1406666666667,279.1561845429836L801.7455333333334,99.06709794182171L804.6174000000001,167.08272567453142L804.9794,204.40218103490565L812.5210666666667,231.51244500242052L812.8951333333333,275.40535267867074L816.9616000000001,201.02542379306212L817.6252666666667,250.19750287063542L821.4021333333334,260.3767172477551L822.3795333333334,248.05619457926795L822.4278,235.84805420825745L822.9466666666667,281.36429786836277L823.0794,307.90024633071675L823.8999333333334,286.19885123550506L824.9014666666667,79.92039489614734L825.6375333333333,184.25006795074202L827.2665333333334,222.0295279094318L829.7884666666666,257.4632671911263L829.9332666666667,298.0500823448222L834.3617333333334,322.00762191355955L834.4824000000001,332.4798332680209L837.2939333333334,237.31079752468727L838.8867333333333,278.49994415196727L838.9712000000001,294.85988941954344L840.4795333333333,309.6785837300749L840.6364,308.8232640391592L840.8174,327.45183779208384L841.7586,317.57754200977695L842.6032666666667,330.51758252606606L842.6515333333334,320.1679750574429L845.8009333333332,327.66536082507963L846.5490666666667,334.42308139574106L846.8024666666668,112.65628760916934L848.0332666666666,213.19242678556856L848.1177333333334,255.64411804455676L849.1675333333333,275.62976473161973L851.3274666666666,307.50127514188375L855.4422000000001,165.46302759191326L855.5266666666666,217.84853194827397L855.6594,277.09314015146083L856.0817333333332,289.7769605402558L857.3487333333334,311.5750689547529L857.397,265.12578814350195L860.3654,227.74859874470607L860.5826,275.71677724546834L862.1754,53.00455890909814L866.7848666666666,164.67987316401886L867.1589333333333,220.92901620691026L867.9432666666667,249.13107200630012L868.3173333333334,286.17740865039826L870.2118,309.93503649749164L870.8634,291.59899570550203L872.6492666666666,283.2293164864521L872.9992,307.9074018642882L873.2284666666667,327.47555620476334L873.9524666666666,321.74577589615274L874.3506666666667,338.947795787098L875.8469333333334,341.05607347817244L875.9796666666667,228.53446728814254L877.0536000000001,260.7998961404926L877.1984,287.1974046833272L878.3568,317.7953755747016L878.6343333333333,325.38587558661317L878.9601333333333,215.23285205748326L879.5514,266.0420573534952L879.9978666666667,297.2078139644793L880.5167333333334,272.80775904950093L881.0476666666666,295.36984798135063L881.6389333333333,319.41218143781543L881.8199333333334,278.7552378346355L884.3298,281.8497510184247L887.2499333333333,300.3098461736753L889.1564666666667,157.1016294291326L890.4596666666667,189.36209779341272L891.1836666666667,257.8195087464053L893.8142,275.8771405086755L895.2622,298.5641140015924L897.6272666666666,223.94311855417513L898.6046666666667,269.07096639961463L900.9818,292.6282624598769L903.0572666666667,154.86264827826187L903.1176,235.7644426177841L905.5188666666667,279.36367781568106L906.5928,314.58446405874065L908.3786666666666,294.01873123226386L908.8251333333333,323.70091541651453L910.1524666666667,317.11434734433783L910.6713333333333,323.3139535828003L910.8644,328.511349135999L913.8931333333334,223.37645012400395L914.7136666666667,231.2464959603509L915.7514,279.4299937215126L917.7424000000001,303.7263321247951L921.3382666666666,325.27368936520475L922.9552,303.82474452268576L923.0396666666667,302.2215295166462L923.8481333333333,328.36476304555697L926.5752,297.86999941348887L926.6234666666667,288.17246523711003L926.7803333333333,316.04223659202705L929.9659333333334,319.0179058786645L930.4606666666666,325.2223428686062L930.6899333333333,333.08423939540455L934.4788666666667,331.57349440888L935.2511333333333,337.21260461275165L935.3597333333333,327.2022875545659L935.8062000000001,330.11211251158943L937.6524,337.5233827944029L938.1712666666666,327.19888370464315L938.8470000000001,320.0968002239917L941.743,304.02857862100325L942.4428666666666,323.5151341005099L942.5032000000001,338.1808774430413L945.7491333333332,245.9349449274754L947.2092,260.42342175753805L947.5350000000001,301.1491374074073L947.6194666666667,328.96765209020924L952.6271333333333,335.3075767537609L952.8925999999999,332.10449387595236L955.5834666666667,347.02770603422744L956.1506,353.2781922655518L956.404,353.759866482375L959.4930666666667,348.40187623963607L960.5308,356.91754813954833L960.5428666666668,-21.29955948015686L961.5564666666667,86.45879213812572L962.1477333333333,-111.23520381568301L962.6545333333332,72.91652319614036L964.9834000000001,189.4792968456328L965.0678666666666,248.53990374818477L965.6108666666667,295.2653511314338L965.8642666666667,310.48907320659583L967.5777333333333,329.04308350044477L970.0514,323.44121616390635L972.7302,340.09383780841404L973.5024666666666,309.2453244449012L975.8916666666667,322.43131912682577L976.4829333333333,307.0528758667208L977.3638,329.29701240523445L980.8872666666666,341.18799903835003L981.0803333333334,344.03519587387234L981.3458,351.6278230579434L982.6610666666667,339.4440865692042L983.1437333333334,343.24364264448985L983.3126666666667,330.33068024264577L985.5088,282.4288616099763L985.5691333333334,314.8504493219347L991.3249333333333,213.17791702644175L991.7834666666666,269.1137783116618L992.6764,283.7101950793874L992.8815333333334,306.9916194634161L993.7986,257.6069964099837L994.3898666666666,161.20470432513434L994.6191333333334,144.86124900623247L994.7880666666666,94.55645481135895L995.7654666666666,47.67603249780211L995.9102666666666,163.51292699236797L997.7202666666667,222.64480578714833L998.1788,264.41663676054316L999.1199999999999,205.7931700441303L999.5302666666666,236.05884979586673L1000.0129333333333,288.83928533167915L1000.1939333333333,48.01864067477743L1000.8937999999999,86.9122474209235L1002.7641333333333,177.56553319134656L1004.731,224.71350728743283L1008.0493333333334,268.53244705549184L1010.0282666666667,302.07983375240894L1010.7764,316.1800047907578L1013.4672666666667,322.9565978031738L1014.6739333333334,335.00170569681427L1017.6302666666667,316.9496210850823L1017.6785333333333,303.4126009654282L1019.754,319.9637091116252L1023.7480666666667,329.5108229530911L1024.0014666666668,341.578129002299L1024.3272666666667,348.82459207741687L1024.46,355.7171392335155L1030.2882,349.66483775935524L1030.6260666666667,352.9237720042807L1032.9790666666668,293.5662173573877L1033.8599333333334,313.0517680088627L1035.2717333333333,323.4938802962719L1035.8509333333334,286.09378512808496L1037.1058666666668,316.15358799583873L1039.4588666666668,323.9168208860586L1040.1828666666665,318.24544549331694L1041.4860666666666,338.1082760533663L1046.7592,347.8834971390871L1047.0608666666667,273.1609754206364L1047.1574,307.3497933793943L1047.2780666666667,330.81880904382876L1047.6400666666666,250.1236357548619L1048.4847333333335,290.65653993074056L1049.0639333333334,314.32601875612266L1049.3414666666667,318.7539693900518L1049.3776666666665,334.48370184681255L1050.1740666666667,271.1662545714166L1051.0549333333333,300.90478115124324L1054.5180666666668,199.74501602108967L1054.8076666666666,266.41043787858115L1056.2556666666667,264.7081530833914L1056.8831333333335,272.46895655138337L1057.2330666666667,237.2673503996017L1058.0536,289.9018715099006L1059.8998000000001,319.48637526187355L1061.2633333333333,338.3414409314744L1062.0356000000002,322.9296970195414L1062.2286666666666,322.4578713114539L1062.6027333333332,330.65189214867604L1062.9888666666668,342.7803283115499L1063.4353333333333,343.08889089220895L1063.5198,327.9246607093536L1064.3162,182.62353492340586L1064.3403333333333,176.78097512162412L1070.8080666666667,222.26913476787024L1071.7492666666667,263.990006782052L1071.9543999999999,296.8448444936981L1072.6904666666667,325.90118042979935L1072.8714666666667,323.2990020422894L1073.1731333333335,311.6503902705018L1075.0193333333332,331.94357840583314L1075.6468,308.55495444940385L1075.864,328.44870465904836L1076.2984,334.4184617095872L1077.2275333333332,341.49033465180156L1079.2306,332.09065584338964L1084.5640666666668,343.8746102886577L1085.9034666666666,314.18187279848337L1086.724,321.7795048970987L1086.7360666666666,321.9382175129062L1087.1584,329.49580918231044L1087.8220666666666,337.36121921824474L1089.3666,344.60131797600275L1089.8975333333333,349.1950716301932L1090.6456666666668,349.11875510644967L1090.9714666666666,351.23175648466236L1091.1766,338.8024557912155L1096.5221333333334,335.4383646448734L1100.1300666666666,315.3984950997104L1101.385,273.8736063133281L1105.1739333333335,308.92388679990404L1106.7184666666667,324.6927706832244L1107.5631333333333,315.9029206810626L1107.7079333333334,332.77033397425606L1108.0458,342.42613534812267L1109.8799333333334,345.77159389534825L1112.8362666666667,345.19502213610997L1113.0414,235.2554365263211L1113.8981333333334,232.3758326957123L1117.4457333333335,205.9389845007358L1117.6991333333333,235.35903709895598L1118.5438,278.7688097640965L1118.8092666666666,295.28143644467553L1120.1607333333334,322.04306052398647L1120.3417333333334,242.76102895600772L1120.5348000000001,286.4384985860478L1120.7037333333333,317.13750281423575L1121.0778,328.53007041619867L1122.6826666666666,277.6757662256458L1124.8305333333335,311.0959704139582L1126.9422000000002,274.00847837887716L1128.5229333333334,294.661989061907L1128.6194666666665,306.55660090360794L1131.6843999999999,315.1967887462005L1131.7930000000001,311.9734881488353L1132.9031333333335,313.88297612959866L1135.6302,328.15179475943205L1135.8474,323.12559964742485L1135.9439333333335,329.8247330608888L1137.4160666666667,292.22146353262207L1141.567,310.0394059098142L1142.6168,316.7823675622122L1142.653,307.49539546069957L1142.9064,313.2521177412418L1146.9487333333334,326.22743190210895L1146.9849333333334,339.6113166709838L1150.2308666666668,343.9797365779115L1151.5582,343.62703376684686L1151.8116,332.2295762754178L1152.8131333333333,263.931698807728L1152.8614,287.8038211471747L1153.5371333333333,303.3646769149623L1153.8146666666667,308.37401374793177L1153.9232666666667,317.54395423619377L1155.2626666666665,316.0570858346726L1158.7861333333333,333.0997146349843L1159.3170666666667,319.84644231277383L1160.0169333333333,329.03047510469065L1161.8631333333333,343.91986247477894L1161.9717333333333,343.91100172679774L1164.4574666666667,-103.45351640891346L1164.7108666666666,64.97747647513415L1165.0849333333333,179.07032982427307L1166.4243333333334,239.80106780405893L1166.6777333333332,281.51921854712697L1169.6461333333332,275.986427457545L1170.3218666666667,270.1015006282412L1171.5285333333334,306.7669408316937L1172.3490666666667,214.98900236013694L1172.7955333333334,273.4021849822423L1173.9539333333335,308.77735016378665L1174.5934666666667,203.909438032704L1174.6779333333334,241.31859068165565L1176.3672666666666,261.654674404653L1176.5120666666667,298.45191906553407L1180.4940666666666,257.1235680127853L1180.5423333333333,296.31429258134375L1180.844,280.2347930197949L1181.5800666666667,311.60923822540997L1182.0385999999999,333.23937506358266L1182.4006000000002,253.83165859136247L1184.2226666666666,300.3044071736288L1184.5967333333333,263.4315596032054L1184.9828666666667,266.8129458219803L1185.7672,309.31233854899074L1186.3343333333332,298.03378018250623L1186.4670666666666,311.66432623031324L1186.7446,306.6224894975876L1187.7823333333333,328.8792333199981L1188.0960666666665,287.38281508501785L1189.3630666666668,310.94780276304584L1191.5954,295.84291179082453L1193.876,322.30302573503053L1194.3466,314.57131302847563L1194.3586666666665,290.8793380267566L1198.1114,299.35125007783745L1198.3889333333334,297.4439828697167L1199.8128,312.1589158445714L1201.3332,170.98229909808148L1201.5986666666665,225.039918732245L1202.1658,236.21798549464302L1204.6877333333332,266.1093346617875L1205.1221333333333,299.23458609180943L1206.5218666666667,306.0427226532835L1206.6184,317.2683865580685L1207.6319999999998,324.7954681072743L1208.6818,337.5399280159391L1209.2368666666666,348.4961616248804L1209.623,208.3344604477833L1212.7724,269.96795776850104L1213.6291333333334,307.3680123423628L1214.8478666666667,316.57288663205304L1215.9097333333334,279.0834071039665L1216.8147333333334,312.7470285975081L1217.3818666666666,328.4955107828799L1220.1089333333334,-249.58320504660458L1222.4016,-51.66214313982459L1223.017,108.77234130415826L1224.8390666666667,200.0217228483469L1225.9371333333333,111.41521582164228L1226.094,74.49007080291432L1226.3474,112.30715037834477L1228.5435333333332,187.023657342877L1230.2569999999998,233.9545515590301L1231.1137333333334,271.9677552847723L1231.5843333333332,308.37381995645745L1231.8739333333333,331.4059851062824L1233.2374666666667,343.4691486472468L1233.4667333333334,332.58222077315037L1234.5648,327.4749330123513L1234.8061333333333,300.80659232230477L1235.8559333333333,326.6172712224308L1235.9645333333333,338.55462137662374L1237.4246,282.6093421015322L1238.6433333333334,313.0192461292944L1238.6674666666668,332.17589713240426L1239.7172666666668,345.4418148318496L1240.2240666666667,306.5428180017064L1240.6343333333332,312.1147755397031L1241.4066,306.9949738219481L1244.1095333333333,324.7785167879858L1244.7249333333334,312.85715853457145L1246.9210666666665,305.44929477667506L1248.2242666666666,314.99414800388035L1250.6134666666667,332.0922802136349L1251.2168,335.40692904958917L1253.1354,318.0005752548265L1254.1731333333335,277.41792988358065L1255.0901999999999,313.189343309775L1256.0193333333332,308.5449778147787L1257.2622000000001,329.63951626618206L1257.6000666666666,340.8665426299691L1258.5774666666666,343.83251293203426L1259.5669333333333,348.6728177158047L1259.7358666666667,354.45334025726896L1259.7720666666667,267.31305332262025L1259.7841333333333,305.00391842227776L1261.8354666666667,305.051285275752L1263.6454666666666,320.5833528759127L1263.7540666666666,334.63071854162115L1264.8400666666666,341.9501517388844L1265.9260666666667,254.39059908158325L1267.181,249.35864766965355L1267.9291333333333,286.45280521511313L1269.8598,318.0095269425357L1271.0061333333333,309.9608518410411L1271.4284666666667,328.6482001806944L1271.9473333333333,335.5076462626472L1273.4556666666667,337.8311511083515L1273.7090666666668,348.71736294940166L1273.9142,353.6657052081603L1277.3532,295.93160431559556L1277.5583333333334,303.9871516241173L1279.8509999999999,220.12543113312367L1281.5403333333334,249.27673124652352L1284.0381333333335,267.8633002218231L1285.0638000000001,288.9320936490819L1286.7652,318.25987576958016L1287.7426,313.40240591960537L1288.0925333333332,318.9842397682958L1288.8406666666667,327.9190707866456L1289.9749333333334,339.0556410874266L1290.9885333333332,341.10268100949156L1291.1212666666668,219.85250859172362L1293.1001999999999,279.1152743328845L1296.0203333333334,293.1007759741238L1301.5951333333333,310.0530370793889L1302.1260666666667,312.8728640977457L1303.2241333333334,331.8617327698046L1303.8998666666666,296.96897989626075L1303.9602,322.46459838709626L1305.1186,252.96295122034186L1305.5650666666666,291.61294024237594L1306.6510666666666,320.63458654113214L1307.182,321.0632232607311L1307.9542666666666,319.837282143699L1308.3524666666667,339.7934028473746L1309.7039333333335,344.5194895734117L1311.7432000000001,350.7029630891629L1312.2258666666667,342.1616450379952L1312.3344666666667,325.1108586292364L1313.0222666666668,329.40151388035855L1314.0117333333333,343.7896426530131L1314.3375333333333,354.76588483625807L1315.0736,358.2446127761478L1316.0027333333333,361.07273874148797L1317.2576666666666,362.94662792117003L1317.5593333333334,364.6145561187862L1318.5729333333334,334.60617035214L1319.8882,345.1008732263343L1320.938,349.76286742689285L1321.7826666666667,355.16931222612345L1321.9395333333332,357.03753425255604L1322.3377333333333,355.2876647800032L1323.9184666666665,264.45370014249227L1324.1477333333332,297.96304046123214L1326.8265333333334,326.7716778000887L1326.9834,309.0863324243245L1327.5626,219.33522329633934" style="fill: none;" fill="none"></path></g></g></g></g><g opacity="0.2"><g><g><g><path stroke="rgb(255, 112, 67)" stroke-width="2px" d="M137.82546666666667,-255.33867269009352L138.103,367.26352232613135L138.30813333333333,-289.78586825728416L139.20106666666666,363.2935998069588L139.4424,-261.31756077706814L141.34893333333335,-194.8254898674786L141.904,359.39181320532225L142.31426666666667,-226.40444408357143L144.8,349.94945592293516L145.29473333333334,-188.08153611794114L146.01873333333333,362.04498517140746L146.91166666666666,345.723477574531L147.53913333333335,328.8646070268005L148.04593333333332,335.9407665771432L148.6372,-265.09914095699787L149.0716,373.8189702514792L149.34913333333336,-212.13953322917223L151.18326666666667,-225.25428249686956L151.50906666666666,373.97018175793346L151.8952,371.64289454044774L154.15166666666667,363.6783160949126L155.1894,296.0965181682259L155.9496,358.28121497575194L156.384,-603.2703121677041L159.61786666666666,-170.64228742569685L160.52286666666666,76.19131426140666L162.07946666666666,237.49655249807984L166.0132,309.21907082479447L167.72666666666666,224.89081416092813L168.20933333333335,293.3014829624444L169.8866,222.4874054994434L173.42213333333333,264.16714000329375L174.15820000000002,259.56737142801285L176.28193333333334,302.6066248053685L177.018,297.0208203634247L178.51426666666666,223.59534627571702L178.52633333333333,320.1876160437241L180.40873333333334,288.08145469333977L180.83106666666666,246.3897298304364L181.8688,-623.3581486642361L182.5566,300.8405046053231L184.5114,335.1510838121176L185.03026666666668,278.5978531213477L186.3214,249.60972056537867L187.31086666666664,258.3382718479261L187.3229333333333,237.04903824068606L188.10726666666665,292.1512335985899L189.38633333333334,4.563858591020107L190.8826,250.21602369192988L192.25820000000002,160.24604853987694L192.95806666666667,266.7150649689138L194.9732,43.781215742230415L195.661,333.93878477904946L196.69873333333334,67.18759038299322L196.7108,311.23898549517617L200.72899999999998,76.73619971424341L202.2132,290.24465239886194L202.56313333333333,-97.42388841882348L203.50433333333334,210.06663995608687L204.21626666666668,291.5450358046219L204.59033333333335,269.7266727434471L204.72306666666665,260.1444184295833L205.02473333333333,65.29750251024961L205.94179999999997,308.78212493658066L205.95386666666664,258.05159166734666L206.65373333333332,190.0656150635332L208.16206666666665,162.20282949320972L209.9238,110.96851681172848L212.50606666666664,-42.89612430334091L213.19386666666665,271.47392963338643L214.8108,298.55489288270473L215.32966666666667,327.17740287585184L215.4262,256.2644400615245L216.46393333333333,38.583754979074L217.2603333333333,265.1470490247011L217.32066666666668,223.43320431932807L217.57406666666665,289.09913422353566L218.98586666666665,271.7350666625425L219.54093333333336,273.8922691885382L219.6254,298.56078272964805L221.70086666666668,224.48839102685452L222.71446666666665,47.93079285696149L223.61946666666668,148.57988562248647L223.99353333333335,327.6832143291831L225.21226666666666,226.90551047958434L226.22586666666666,158.4929281361401L227.85486666666665,34.10673397406936L229.25459999999998,312.86359136970714L232.89873333333333,270.6513436026871L233.9244,104.16217106208205L235.61373333333336,86.61239337921143L237.6892,154.17165891081095L237.8098666666667,312.0181174464524L238.40113333333332,239.1832870412618L240.13873333333333,196.42923041060567L241.32126666666665,-50.07682205364108L241.76773333333335,305.48854183685035L242.05733333333333,283.84146711137146L242.3228,104.93457489460707L243.81906666666666,253.7752994550392L245.44806666666668,42.75137907639146L249.45420000000001,321.3978786468506L249.8886,283.0449508950114L250.63673333333335,328.0761004756205L255.47546666666668,177.09292433969676L256.39253333333335,28.61521974951029L257.1286,286.8227566573769L259.32473333333337,247.90623814146966L259.43333333333334,314.72273340728134L261.5932666666667,298.9920055475086L262.08799999999997,277.2732783323154L262.5706666666667,26.426865112036467L262.67926666666665,57.21115520969033L263.5722,302.12427179608494L263.77733333333333,107.8845718856901L264.70646666666664,323.26119448803365L267.0474,217.4423609841615L268.5316,159.7704368159175L268.65226666666666,330.2485455041751L270.96906666666666,285.84291785769165L272.19986666666665,322.28714020270854L272.6222,106.50406549498439L273.0204,285.5507077164948L275.2648,222.25611270219088L275.6992,245.36220170371234L276.29046666666665,225.49568651989102L276.5076666666667,300.1021583080292L276.62833333333333,275.92996312119067L278.1125333333333,294.56340241990983L280.89993333333337,299.0484199235216L283.47013333333337,226.17557323351502L284.3148,186.80676538310945L287.1384,-157.85912512987852L293.2803333333334,331.79340583551675L294.3784,313.28489098045975L295.1748,269.45548523031175L297.021,294.43271979503334L300.76166666666666,38.02191098034382L302.6440666666667,262.4143882635981L303.8024666666667,1.7463524341583252L305.14186666666666,319.09356161300093L305.26253333333335,161.0709782205522L307.8206666666667,307.57858606334776L309.8358,215.37013551965356L311.42859999999996,313.701174126938L313.13,266.3566884100437L314.5176666666667,-303.4876711219549L317.3774666666667,179.98704239539802L320.20106666666663,240.92745417542756L320.8406,66.58902042359114L321.23879999999997,-110.42814380675554L321.5646,168.35765810497105L322.0834666666667,311.85875363694504L323.42286666666666,164.64775674790144L323.85726666666665,252.44733646791428L324.6536666666667,28.421162020415068L325.23286666666667,282.01576378010213L327.2359333333333,327.3960601519793L328.91319999999996,329.5808334816247L330.07160000000005,-483.91445107012987L331.3627333333333,89.2580318711698L332.19533333333334,299.3046589875594L332.9796666666667,311.9935661768541L333.41406666666666,300.6477108672261L333.8726,320.90263117384166L334.9224,293.12120624631643L336.15319999999997,135.08546505868435L338.4096666666667,250.61770949792117L341.2574,286.67562459409237L343.0915333333333,321.27865971811116L343.2846,353.30371497944L345.17906666666664,230.19355484098196L345.2394,-604.598836928606L346.9528666666667,262.2741379290819L350.0419333333333,313.5618410636671L350.5004666666666,187.3694344870746L351.3330666666667,148.57475943677127L355.0496,289.23917389288545L355.10993333333334,215.35732005536556L355.3874666666667,234.13657476007938L355.8098,296.47773434221745L357.37846666666667,-25.92760692536831L358.54893333333337,-211.34139313548803L360.7450666666667,79.03427579253912L361.5656,252.12215722817928L363.267,301.8982105171308L366.4164,279.05245977267623L367.9006,-302.082253575325L370.3018666666666,351.46172459749505L371.2189333333334,132.44038834050298L374.03046666666665,-161.87643963098526L374.8389333333334,4.39216648042202L376.1059333333333,303.08246474992484L377.15573333333333,255.626616159454L377.5177333333333,354.8471489320509L387.7623333333333,292.4201564611867L389.16206666666665,228.45453144796193L390.0791333333333,223.91801508888602L390.4894,-275.08544228225946L393.32506666666666,-459.76955457776785L393.3854,92.80756437033415L395.30400000000003,194.09140883758664L395.90733333333327,332.3554209996946L396.2934666666667,256.89987642504275L397.37946666666664,175.22304276749492L397.95866666666666,-524.0372471064329L398.8274666666666,344.08050433080643L399.286,206.21299473382533L399.58766666666673,118.82955771684647L400.44440000000003,283.3293313141912L401.63899999999995,265.16088270395994L402.64053333333334,315.2635372225195L402.71293333333335,249.82431814819574L403.5938,326.25817858893424L405.7778666666667,128.8847114406526L406.5863333333333,281.5405558310449L407.05693333333335,333.6923899226822L407.2982666666667,279.79179795179516L407.57579999999996,203.30793964490294L410.08566666666667,367.8026265562512L415.20193333333333,154.28378544561565L415.7328666666667,341.19287300668657L415.7690666666667,306.6803141827695L417.96520000000004,55.53910578414798L418.9064,59.120729610323906L420.33026666666666,126.61279295384884L422.092,298.345228375867L424.61393333333336,91.24039108678699L425.0121333333333,200.35300957784057L426.23086666666666,288.6535159526393L431.6970666666666,-342.08005494624376L433.26573333333334,336.34113572584465L435.4618666666667,350.36214459501207L435.4739333333334,225.36612744256854L436.76506666666666,331.88100743386894L436.934,326.7267198632471L439.46799999999996,25.656743485480547L441.92960000000005,235.17391637247056L443.79993333333334,346.36595366569236L444.24640000000005,282.2079957444221L445.95986666666664,349.6161002414301L446.6718,-198.54611759260297L446.93726666666663,250.05913080926985L449.78499999999997,328.13880408462137L450.34006666666664,65.57105122879148L452.9464666666667,343.08190535916947L454.40653333333336,237.40430748835206L455.1546666666667,179.96056880615652L455.939,-315.31581799685955L460.3312666666667,246.85206087119877L461.48966666666666,273.1074010003358L463.25140000000005,344.6253502839245L463.92713333333336,322.6114592263475L464.05986666666666,-1078.559367313981L465.0976,273.1008616024628L465.6044,269.9199404781684L467.7160666666667,-40.45535768568516L467.9574,345.96560207242146L469.3088666666667,321.88889964995906L471.64979999999997,329.21607552375644L472.49446666666665,346.6268141968176L472.68753333333336,236.498693048954L474.7750666666667,-228.3962130099535L475.6076666666667,69.39451866596937L476.9229333333333,55.100922238081694L479.17940000000004,281.15813711006194L479.65,328.1790147982538L479.75859999999994,352.65717480611056L479.9637333333334,335.10574691277L481.1100666666666,347.71417561965063L481.6048,-29.84791011735797L481.9668,286.1048097703606L481.9909333333333,228.637090370059L483.8492,-508.12402176856995L484.3680666666667,324.5557582685724L486.7572666666667,20.290118593722582L488.86893333333336,283.0339348623529L489.3998666666667,356.1287568048574L490.5462,154.18314016237855L490.57033333333334,186.6686392556876L491.41499999999996,-108.47243373468518L492.18726666666663,274.88691599387676L494.5402666666667,321.56167520256713L494.7454,-165.0019382610917L494.9626,174.87226771004498L496.6881333333334,302.1736903330311L497.0863333333333,335.0797999864444L500.28399999999993,186.32565880939364L501.4424,23.86998687684536L502.10606666666666,235.35732673294842L508.76686666666666,209.68013959750533L509.2857333333333,205.61949829384685L510.6854666666667,225.7243284471333L511.0957333333333,110.02517575211823L511.5784,84.7496042009443L511.72319999999996,139.22155960276723L515.4035333333334,283.8852064665407L515.5362666666666,285.97580368909985L516.031,147.61756714247167L516.3567999999999,334.84866518806666L516.5619333333334,-282.3668730929494L517.66,336.8353693727404L521.0748666666667,342.6422691012267L521.2196666666666,-246.0783937498927L521.6661333333334,285.3955703768879L522.4142666666667,319.56818145513535L523.1141333333334,323.7771354247816L524.2725333333333,353.7261491098907L525.1654666666667,288.6538758389652L526.4083333333333,336.0797924203798L530.4144666666667,247.182102965191L531.1988,251.66653236187994L532.1279333333333,126.42186009138823L532.6106,360.52905618958175L532.9605333333333,-247.16830509901047L534.3844,205.76657769083977L535.1687333333333,263.2954865442589L536.9063333333334,323.07761735096574L537.5217333333333,316.10265607992187L539.1386666666667,242.25608426891267L539.1628000000001,316.133939857129L540.8642,322.47159511130303L541.5882,328.2537745991722L543.5068,359.1608100726735L544.5928,-317.2718440666795L545.2202666666667,254.41031448822469L545.6546666666667,270.45040414482355L547.4043333333333,182.72159914299846L547.9594,290.35736704058945L548.8282,200.57146935537457L549.154,334.72741860710084L553.0394666666667,196.86367464996874L554.3547333333333,23.31369039416313L554.7167333333333,-9.934715043753386L556.1768,298.896662004292L556.8404666666667,249.9008071590215L557.4076,342.22877507377416L560.5328666666667,257.8769941329956L560.6535333333334,265.3518331218511L560.9672666666667,257.4064208175987L562.4394,345.4900934866164L562.6324666666667,-855.792891561985L565.4198666666667,-633.9579069539905L567.4953333333334,358.6915106232045L568.1107333333333,-65.68405623733997L569.0640000000001,123.19497884996235L570.5964666666666,306.2735768016428L571.9117333333334,290.5814796667546L572.0927333333334,258.55874172225595L573.5648666666667,316.4603304215707L573.7458666666666,140.66170179098845L574.5302,316.9253606097773L576.0988666666666,322.18502904102206L576.4126,302.90684900060296L576.8228666666666,325.58213651459664L579.1517333333334,260.5341138765216L579.7550666666666,351.9326490215026L581.2754666666666,344.7697480889037L581.8908666666666,318.16509000305086L582.1201333333333,-158.20370312035084L582.5183333333333,287.28995933011174L583.0613333333333,-368.17135713249445L583.9301333333333,88.97872497141361L585.0885333333333,328.6732089454308L585.1609333333333,107.79749695025384L585.9211333333334,322.41251230984926L586.0297333333333,112.08054800331593L588.9257333333334,344.9846265586093L589.8307333333333,305.5474095842801L591.1580666666666,103.91834368743002L593.0404666666667,235.5408336482942L593.6558666666666,318.35764674283564L596.3588,-211.50613329559565L597.843,336.72151362802833L599.6771333333334,316.599347487092L602.0180666666666,306.2364295106381L602.8868666666666,225.21950448676944L603.2850666666667,201.49850142002106L603.8280666666666,310.6772204958834L604.3469333333334,175.0201195459813L607.8824666666667,244.5307326251641L607.8945333333334,301.48213803581893L611.3818,354.3569881450385L611.6955333333333,139.88266200572252L614.0485333333334,257.8871938381344L615.4965333333333,-119.1293876171112L616.9686666666666,222.69096071645617L617.7891999999999,340.2304228609428L618.1270666666667,102.13235951773822L619.8525999999999,317.65797505900264L620.2387333333334,353.99012792436406L620.9748,56.5865329913795L621.2644,341.5534747163765L621.2885333333334,326.6678828378208L621.8074,293.90247557125986L622.1814666666667,326.1474740440026L622.7968666666667,307.60834251809865L624.45,133.83130510151386L624.8964666666667,335.56140688993037L625.717,313.77866379730403L626.8633333333333,342.1046406244859L627.2856666666667,300.8489048788324L627.7321333333333,190.5105574503541L627.889,278.1724762618542L631.5452,346.28960509831086L633.8740666666667,217.6756902113557L634.405,131.8471201211214L634.4532666666667,215.32098031416535L634.8756,-370.6765872910619L635.6840666666667,343.2812494672835L635.7202666666667,357.40991920861416L638.1577333333333,343.03032092098147L638.4473333333334,323.32365670986474L639.7746666666667,325.0535425012931L640.8968666666667,319.5573321990669L641.4398666666667,362.1576230081264L641.5243333333333,187.06554998457432L641.9346,236.85363752115518L643.0085333333333,350.08165709255263L643.3584666666667,362.9061964409193L645.808,297.0881717726588L645.9286666666667,306.31456873193383L646.7492,258.356204720214L648.8608666666667,266.9933624314144L650.4416,334.4552304344252L652.8308,349.8607263881713L654.6166666666667,351.71515918150544L655.0872666666667,340.1471223430708L655.5699333333333,339.466910853982L657.0541333333333,268.6747425682843L658.9968666666666,340.651165086776L660.4810666666667,179.86215306259692L661.4584666666666,-85.22145976498723L662.0859333333333,309.7305000158958L662.2066,293.68106648139656L662.4841333333334,25.300684243440628L664.7888666666666,335.13619680702686L666.2851333333333,355.15982431638986L666.5988666666666,335.55836102273315L670.9308,-21.222962208092213L671.4255333333333,323.29936438286677L671.5462,303.1937574017793L676.2642666666667,340.6956329923123L677.3985333333334,339.19068493228406L680.3307333333333,291.97189609799534L685.3022,338.9022360420786L686.4123333333333,205.97327532991767L690.8166666666667,343.11320669180714L691.6251333333333,-121.09320829808712L691.963,70.8687183894217L693.6523333333333,364.1105198224541L696.307,356.914243821986L696.3673333333334,356.46212565293536L697.9963333333333,321.38691089162603L698.1652666666668,362.23595314472914L701.1698666666667,309.7109959325753L701.1940000000001,334.9043554025702L701.6646,348.1506453168113L704.5726666666667,354.3013637633994L706.5998666666667,366.3788394459989L706.8412,308.85534863732755L708.0358,358.2292750400957L708.3736666666667,340.1189019884914L708.7477333333334,288.26698926091194L709.5441333333333,326.4231118587777L710.3163999999999,102.15339092351496L711.0404,-331.38198624551296L712.3918666666667,364.67133243964054L715.2999333333333,360.4860333154211L715.855,339.0780405122787L715.9032666666667,334.43496268987656L717.0133999999999,361.89315483602695L718.0390666666667,291.0670014312491L719.7404666666666,286.9109463626519L721.8642,293.6881764307618L722.2865333333334,345.4742519049905L723.0708666666667,354.8657532995567L723.1070666666667,-74.93541701883078L724.905,362.2160825917963L727.2821333333333,306.8784667160362L728.4526000000001,316.3081292277202L731.5296,314.8203986561857L731.5778666666666,357.59905922273174L735.0530666666667,300.0915460502729L735.5840000000001,368.2334993627155L738.7454666666666,330.559285402298L742.8360666666666,54.7564144693315L743.5600666666667,348.63580500055104L743.7169333333334,227.13394174166024L745.0804666666667,362.53371299640276L746.9387333333333,350.77083940664306L747.6265333333333,244.1395537443459L749.3520666666667,303.3647472951561L749.4727333333334,345.81374759832397L752.1756666666666,89.8255111631006L752.7307333333333,110.80944705568254L753.8770666666666,171.94337234646082L756.7851333333333,284.0025118533522L758.4744666666667,255.3420777413994L758.9812666666666,342.9946943691466L759.3553333333333,354.1496365661733L761.9738000000001,355.05610463838093L761.9979333333334,347.9989356750157L762.2392666666667,358.77340560941957L762.5650666666666,263.6828383412212L762.5891999999999,258.20838799513876L762.9029333333334,351.8902351013385L762.915,356.0900119696744L765.0628666666668,217.54563958197832L766.3177999999999,282.5328326532617L768.6225333333334,295.6875205254182L768.8397333333334,360.3187322568847L768.8517999999999,334.38096218556166L770.2032666666667,335.416377089452L770.7945333333333,363.5586100029759L770.9634666666666,363.57480927649885L773.3647333333333,335.79322635009885L773.3768,293.9214354362339L773.4853999999999,317.21607853937894L774.6076,355.6644683335908L777.4070666666668,213.3035804592073L777.8656,369.8908697052975L778.5534,344.12593778502196L778.6499333333334,371.9771718820557L780.2789333333334,347.61169140506536L781.8234666666667,82.88730657473207L783.0542666666666,368.5533647930715L783.2594,315.80937066860497L783.8506666666667,256.75768621545285L784.092,346.7207620833069L784.3091999999999,354.0536632218864L785.0090666666667,355.45836757915094L785.2986666666667,337.7323289848864L787.6758,208.15174626000226L788.4359999999999,324.72329413099214L790.7769333333333,330.16511332057416L791.6698666666666,-28.076602287590504L792.0801333333334,157.41990511119366L792.3214666666667,340.57059004949406L793.1419999999999,299.86053413990885L793.2023333333334,146.02537737041712L795.7242666666666,345.2790223509073L796.1345333333333,358.7954892438138L799.0667333333333,292.1198357110843L800.1406666666667,248.91910748369992L801.7455333333334,-171.06653195992112L804.6174000000001,269.10616727359593L804.9794,260.381364075467L812.5210666666667,272.1778409536928L812.8951333333333,341.2447141930461L816.9616000000001,89.4555304646492L817.6252666666667,323.95562148699537L821.4021333333334,275.64553881343454L822.3795333333334,229.57541057653725L822.4278,217.53584365174174L822.9466666666667,349.6386633585207L823.0794,347.7041690242477L823.8999333333334,253.64675859268755L824.9014666666667,-229.4972896128893L825.6375333333333,340.74457753263414L827.2665333333334,278.69871784746647L829.7884666666666,310.6138761136681L829.9332666666667,358.93030507536605L834.3617333333334,357.94393126666546L834.4824000000001,348.188150299713L837.2939333333334,94.5572439096868L838.8867333333333,340.2836640928872L838.9712000000001,319.3998073209077L840.4795333333333,331.90662519587204L840.6364,307.54028450278565L840.8174,355.3946984214708L841.7586,302.76609833631665L842.6032666666667,349.92764330049977L842.6515333333334,304.6435638545081L845.8009333333332,338.9114394765347L846.5490666666667,344.55966225173324L846.8024666666668,-219.99390307068825L848.0332666666666,363.9966355501674L848.1177333333334,319.3216549330391L849.1675333333333,305.6082347622141L851.3274666666666,355.30854075727984L855.4422000000001,-47.59434373304248L855.5266666666666,296.426788482815L855.6594,365.9600524562411L856.0817333333332,308.8026911234483L857.3487333333334,344.2722315764986L857.397,195.45186692662537L860.3654,171.68281464651227L860.5826,347.6690449966118L862.1754,-281.0637685954571L866.7848666666666,332.1928445464L867.1589333333333,305.3027307712473L867.9432666666667,291.4341557053849L868.3173333333334,341.7469136165455L870.2118,345.5714782681316L870.8634,264.0949345175177L872.6492666666666,270.6747976578772L872.9992,344.92452993104234L873.2284666666667,356.827787715476L873.9524666666666,313.1511054332368L874.3506666666667,364.750825623516L875.8469333333334,344.21849001478404L875.9796666666667,59.75205800309777L877.0536000000001,309.19803941901773L877.1984,326.793667497579L878.3568,363.6923319117632L878.6343333333333,336.7716256044805L878.9601333333333,50.00331676378846L879.5514,342.2558652975131L879.9978666666667,343.9564488809556L880.5167333333334,236.2076766770333L881.0476666666666,329.21298137912527L881.6389333333333,355.47568162251264L881.8199333333334,217.7698224298656L884.3298,286.4915207941085L887.2499333333333,327.99998890655115L889.1564666666667,-57.71069568768144L890.4596666666667,237.7528003398329L891.1836666666667,360.50562517589424L893.8142,302.9635881520808L895.2622,332.59457424096763L897.6272666666666,112.01162538304925L898.6046666666667,336.76273816777393L900.9818,327.9642065502703L903.0572666666667,-51.78577299416065L903.1176,357.1171341270674L905.5188666666667,344.76253061252646L906.5928,367.41564342333004L908.3786666666666,263.1701319925487L908.8251333333333,368.2241916928906L910.1524666666667,307.2344952360727L910.6713333333333,332.61336294049397L910.8644,336.30744246579707L913.8931333333334,65.67410160601139L914.7136666666667,243.05156471487135L915.7514,351.70524036325514L917.7424000000001,340.17083972971886L921.3382666666666,357.5947252258193L922.9552,271.65132725890726L923.0396666666667,299.81670700758696L923.8481333333333,367.5796133389231L926.5752,252.12785396538675L926.6234666666667,273.6261639725417L926.7803333333333,357.8468936244026L929.9659333333334,323.4814098086208L930.4606666666666,334.52899835351855L930.6899333333333,344.87708418560214L934.4788666666667,329.30737692909315L935.2511333333333,345.6712699185591L935.3597333333333,312.1868119672872L935.8062000000001,334.4768499471247L937.6524,348.640288218623L938.1712666666666,311.71213507000357L938.8470000000001,309.4436750030145L941.743,279.92624621652067L942.4428666666666,352.7449673197698L942.5032000000001,360.1794924568385L945.7491333333332,107.56604615412652L947.2092,282.156137002632L947.5350000000001,362.2377108822111L947.6194666666667,370.69542411441216L952.6271333333333,344.81746374908835L952.8925999999999,327.2998695592396L955.5834666666667,369.41252427164L956.1506,362.6539216125384L956.404,354.48237780760974L959.4930666666667,340.36489087552764L960.5308,369.6910559894168L960.5428666666668,-588.6252209097147L961.5564666666667,248.0963195655495L962.1477333333333,-407.77619774639606L962.6545333333332,349.1441137138754L964.9834000000001,364.3234573198715L965.0678666666666,337.13081410201266L965.6108666666667,365.3535222063074L965.8642666666667,333.3246563193388L967.5777333333333,356.8740989412181L970.0514,315.0384151590988L972.7302,365.07277027517557L973.5024666666666,262.9725543996319L975.8916666666667,342.21031114971265L976.4829333333333,283.9852109765634L977.3638,362.6632172130048L980.8872666666666,359.0244789880235L981.0803333333334,348.3059911271557L981.3458,363.0167638340499L982.6610666666667,321.16848183609545L983.1437333333334,348.94297675741836L983.3126666666667,310.96123663987964L985.5088,210.57613366097212L985.5691333333334,363.4828308898723L991.3249333333333,60.66911858320236L991.7834666666666,353.01757023949176L992.6764,305.60482023097575L992.8815333333334,341.91375603945926L993.7986,183.53006182983518L994.3898666666666,16.60126619786024L994.6191333333334,120.34606602787971L994.7880666666666,19.09926351904869L995.7654666666666,-22.644600972533226L995.9102666666666,337.2682687342167L997.7202666666667,311.3426239793189L998.1788,327.07438322063535L999.1199999999999,117.85796996951103L999.5302666666666,281.4573694234714L1000.0129333333333,368.0099386353977L1000.1939333333333,-313.212326310575L1000.8937999999999,145.25265754014254L1002.7641333333333,313.5454618469812L1004.731,295.4354684315622L1008.0493333333334,334.2608567075804L1010.0282666666667,352.4009137977846L1010.7764,337.33026134828106L1013.4672666666667,333.12148732179776L1014.6739333333334,353.06936753727496L1017.6302666666667,289.87149416748434L1017.6785333333333,283.10707078594714L1019.754,344.7903713309206L1023.7480666666667,343.83149371529L1024.0014666666668,359.67908807611093L1024.3272666666667,359.6942866900936L1024.46,366.0559599676635L1030.2882,340.5863855481148L1030.6260666666667,357.8121733716689L1032.9790666666668,204.52988538704813L1033.8599333333334,342.28009398607537L1035.2717333333333,339.1570487273857L1035.8509333333334,229.99364237580448L1037.1058666666668,361.24329229746945L1039.4588666666668,335.56167022138834L1040.1828666666665,309.73838240420446L1041.4860666666666,367.9025218934403L1046.7592,362.54632876766846L1047.0608666666667,161.07719284296036L1047.1574,358.6330203175312L1047.2780666666667,366.0223325404804L1047.6400666666666,129.0808758214116L1048.4847333333335,351.4558961945586L1049.0639333333334,349.83023699419573L1049.3414666666667,325.3958953409456L1049.3776666666665,358.0783005319536L1050.1740666666667,176.1900836583227L1051.0549333333333,345.51257102098316L1054.5180666666668,48.00536832585931L1054.8076666666666,366.4085706648184L1056.2556666666667,262.15472589060664L1056.8831333333335,284.11016175337136L1057.2330666666667,184.46494117192924L1058.0536,368.8536531753489L1059.8998000000001,363.863130889833L1061.2633333333333,366.6240394358756L1062.0356000000002,299.8120811516419L1062.2286666666666,321.7501327493228L1062.6027333333332,342.9429234045092L1062.9888666666668,360.97298255586065L1063.4353333333333,343.5517347631976L1063.5198,305.17831543507054L1064.3162,-35.328153755515814L1064.3403333333333,168.0171354189515L1070.8080666666667,290.50137423723936L1071.7492666666667,326.57131480332464L1071.9543999999999,346.1271010611672L1072.6904666666667,369.4856843339512L1072.8714666666667,319.3957344610244L1073.1731333333335,294.17747261282057L1075.0193333333332,362.3833606088301L1075.6468,273.47201851475984L1075.864,358.2893299735151L1076.2984,343.3730972853955L1077.2275333333332,352.09814406512305L1079.2306,317.99113763077185L1084.5640666666668,361.55054195655975L1085.9034666666666,269.6427665632218L1086.724,333.17595304502174L1086.7360666666666,322.1762864366174L1087.1584,340.83219668641686L1087.8220666666666,349.1593342721462L1089.3666,355.46146611263976L1089.8975333333333,356.0857021114789L1090.6456666666668,349.00428032083437L1090.9714666666666,354.4012585519813L1091.1766,320.15850475104526L1096.5221333333334,330.3922279253602L1100.1300666666666,285.33869078196585L1101.385,211.58627313375473L1105.1739333333335,361.499307529768L1106.7184666666667,348.34609650820494L1107.5631333333333,302.71814567781985L1107.7079333333334,358.0714539140463L1108.0458,356.9098374089226L1109.8799333333334,350.78978171618655L1112.8362666666667,344.33016449725255L1113.0414,70.34605811163783L1113.8981333333334,228.05642694979906L1117.4457333333335,166.28371220827103L1117.6991333333333,279.4891159962863L1118.5438,343.8834687618073L1118.8092666666666,320.0503764655441L1120.1607333333334,362.1854966429528L1120.3417333333334,123.83798160403967L1120.5348000000001,351.9547030311078L1120.7037333333333,363.1860091565177L1121.0778,345.618921819143L1122.6826666666666,201.3943099398166L1124.8305333333335,361.2262766964268L1126.9422000000002,218.37724032625556L1128.5229333333334,325.64225508645177L1128.6194666666665,324.39851866615936L1131.6843999999999,328.1570705100894L1131.7930000000001,307.1385372527875L1132.9031333333335,316.7472081007436L1135.6302,349.5550227041822L1135.8474,315.5863069794141L1135.9439333333335,339.8734331810847L1137.4160666666667,235.81655924022198L1141.567,336.76631947560236L1142.6168,326.8968100408092L1142.653,293.5649373084307L1142.9064,321.88720116205513L1146.9487333333334,345.69040314340964L1146.9849333333334,359.6871438242961L1150.2308666666668,350.53236643830314L1151.5582,343.0979795502499L1151.8116,315.13339003827423L1152.8131333333333,161.48488260619342L1152.8614,323.61200465634465L1153.5371333333333,326.7059605666436L1153.8146666666667,315.8880189973861L1153.9232666666667,331.2988649685867L1155.2626666666665,313.8267832323909L1158.7861333333333,358.6636578354519L1159.3170666666667,299.96653382945806L1160.0169333333333,342.8065242925659L1161.8631333333333,366.25394352991134L1161.9717333333333,343.897710604826L1164.4574666666667,-774.5002936124802L1164.7108666666666,317.6239658012055L1165.0849333333333,350.2096098479815L1166.4243333333334,330.8971747737378L1166.6777333333332,344.09644466172904L1169.6461333333332,267.68724082317203L1170.3218666666667,261.27411038428545L1171.5285333333334,361.76510113687254L1172.3490666666667,77.32209465280175L1172.7955333333334,361.0219589154003L1173.9539333333335,361.8400979361031L1174.5934666666667,46.607569836080074L1174.6779333333334,297.4323196550831L1176.3672666666666,292.158799989149L1176.5120666666667,353.6477860568557L1180.4940666666666,195.13104143366218L1180.5423333333333,355.1003794341814L1180.844,256.1155436774716L1181.5800666666667,358.6709060338326L1182.0385999999999,365.68458032084163L1182.4006000000002,134.7200838830322L1184.2226666666666,370.0135300470283L1184.5967333333333,208.1222882475704L1184.9828666666667,271.8850251501426L1185.7672,373.0614276395063L1186.3343333333332,281.1159426327795L1186.4670666666666,332.11014530202374L1186.7446,299.05973439849913L1187.7823333333333,362.26434905361384L1188.0960666666665,225.13818773254752L1189.3630666666668,346.2952842800878L1191.5954,273.1855753324926L1193.876,361.99319665133953L1194.3466,302.97374396864325L1194.3586666666665,255.34137552417815L1198.1114,312.0591181544587L1198.3889333333334,294.58308205753565L1199.8128,334.2313153068535L1201.3332,-40.782626021653414L1201.5986666666665,306.12634818349034L1202.1658,252.98508563823998L1204.6877333333332,310.9463584125042L1205.1221333333333,348.9224632368423L1206.5218666666667,316.2549274954945L1206.6184,334.1068824152462L1207.6319999999998,336.086090431083L1208.6818,356.65661787893623L1209.2368666666666,364.93051203829236L1209.623,-1.9080913178622723L1212.7724,362.4182037495775L1213.6291333333334,363.4680942031555L1214.8478666666667,330.3801980665885L1215.9097333333334,222.8491878118366L1216.8147333333334,363.24246083782054L1217.3818666666666,352.11823406093754L1220.1089333333334,-1116.7012787908316L1222.4016,245.21944972034544L1223.017,349.42406797013246L1224.8390666666667,336.8957951646298L1225.9371333333333,-21.494544718414545L1226.094,19.102353274822235L1226.3474,169.03276974149048L1228.5435333333332,299.0984177896753L1230.2569999999998,304.3508928832598L1231.1137333333334,328.9875608733855L1231.5843333333332,362.9829169639852L1231.8739333333333,365.9542328310199L1233.2374666666667,361.56389395869337L1233.4667333333334,316.2518289620057L1234.5648,319.8140013711527L1234.8061333333333,260.804081287235L1235.8559333333333,365.33328957261983L1235.9645333333333,356.4606466079131L1237.4246,198.691423188895L1238.6433333333334,358.6341021709377L1238.6674666666668,360.910873637069L1239.7172666666668,365.3406913810177L1240.2240666666667,248.1943227564916L1240.6343333333332,320.4727118466981L1241.4066,299.31527124531567L1244.1095333333333,351.4538312370423L1244.7249333333334,294.9751211544499L1246.9210666666665,294.33749913983047L1248.2242666666666,329.3114278446883L1250.6134666666667,357.7394785282668L1251.2168,340.3789023035206L1253.1354,291.8910445626825L1254.1731333333335,216.5439618267119L1255.0901999999999,366.8464634490665L1256.0193333333332,301.5784295722842L1257.2622000000001,361.28132394328713L1257.6000666666666,357.7070821756497L1258.5774666666666,348.28146838513203L1259.5669333333333,355.9332748914603L1259.7358666666667,363.1241240694653L1259.7720666666667,136.60262292064726L1259.7841333333333,361.540216071764L1261.8354666666667,305.1223355559632L1263.6454666666666,343.8814542761538L1263.7540666666666,355.70176704018377L1264.8400666666666,352.92930153477937L1265.9260666666667,123.05127009563148L1267.181,241.810720551759L1267.9291333333333,342.0940415333025L1269.8598,365.3446095336694L1271.0061333333333,297.88783918879926L1271.4284666666667,356.67922269017436L1271.9473333333333,345.79681538557634L1273.4556666666667,341.31640837690793L1273.7090666666668,365.04668071097694L1273.9142,361.08821859629825L1277.3532,209.33045297674835L1277.5583333333334,316.0704725869L1279.8509999999999,94.33285039663315L1281.5403333333334,293.0036814166233L1284.0381333333335,295.74315368477255L1285.0638000000001,320.53528378997L1286.7652,362.25154895032756L1287.7426,306.1162011446431L1288.0925333333332,327.35699054133147L1288.8406666666667,341.3213173141703L1289.9749333333334,355.7604965385981L1290.9885333333332,344.1732408925891L1291.1212666666668,37.97724996507168L1293.1001999999999,368.00942294462584L1296.0203333333334,314.07902843598276L1301.5951333333333,335.4814287372865L1302.1260666666667,317.10260462528095L1303.2241333333334,360.3450357778929L1303.8998666666666,244.62985058594495L1303.9602,360.70802612334955L1305.1186,148.7104804702103L1305.5650666666666,349.58792377542704L1306.6510666666666,364.1670559892664L1307.182,321.70617834012955L1307.9542666666666,317.9983704681508L1308.3524666666667,369.727583902888L1309.7039333333335,351.6086196624674L1311.7432000000001,359.9781733627897L1312.2258666666667,329.34966796124354L1312.3344666666667,299.5346790160984L1313.0222666666668,335.83749675704166L1314.0117333333333,365.37183581199497L1314.3375333333333,371.23024811112555L1315.0736,363.4627046859823L1316.0027333333333,365.3149276894983L1317.2576666666666,365.75746169069316L1317.5593333333334,367.11644841521047L1318.5729333333334,289.59359170217067L1319.8882,360.84292753762566L1320.938,356.7558587277308L1321.7826666666667,363.2789794249693L1321.9395333333332,359.8398672922049L1322.3377333333333,352.66286057117395L1323.9184666666665,128.2027531862259L1324.1477333333332,348.227050939342L1326.8265333333334,369.9846338083735L1326.9834,282.5583143606782L1327.5626,84.70855960436165" style="fill: none;" fill="none"></path></g></g></g></g></g></g><g transform="translate(50, 377)" clip-path="url(#clip_1)"><clipPath id="clip_1"><rect width="1448" height="23"></rect></clipPath><g><g><line x1="0" y1="0" x2="0" y2="5" style="visibility: inherit;" fill="rgb(0, 0, 0)" stroke="rgb(204, 204, 204)" stroke-width="1px"></line><line x1="120.66666666666666" y1="0" x2="120.66666666666666" y2="5" style="visibility: inherit;" fill="rgb(0, 0, 0)" stroke="rgb(204, 204, 204)" stroke-width="1px"></line><line x1="241.33333333333331" y1="0" x2="241.33333333333331" y2="5" style="visibility: inherit;" fill="rgb(0, 0, 0)" stroke="rgb(204, 204, 204)" stroke-width="1px"></line><line x1="362" y1="0" x2="362" y2="5" style="visibility: inherit;" fill="rgb(0, 0, 0)" stroke="rgb(204, 204, 204)" stroke-width="1px"></line><line x1="482.66666666666663" y1="0" x2="482.66666666666663" y2="5" style="visibility: inherit;" fill="rgb(0, 0, 0)" stroke="rgb(204, 204, 204)" stroke-width="1px"></line><line x1="603.3333333333334" y1="0" x2="603.3333333333334" y2="5" style="visibility: inherit;" fill="rgb(0, 0, 0)" stroke="rgb(204, 204, 204)" stroke-width="1px"></line><line x1="724" y1="0" x2="724" y2="5" style="visibility: inherit;" fill="rgb(0, 0, 0)" stroke="rgb(204, 204, 204)" stroke-width="1px"></line><line x1="844.6666666666667" y1="0" x2="844.6666666666667" y2="5" style="visibility: inherit;" fill="rgb(0, 0, 0)" stroke="rgb(204, 204, 204)" stroke-width="1px"></line><line x1="965.3333333333333" y1="0" x2="965.3333333333333" y2="5" style="visibility: inherit;" fill="rgb(0, 0, 0)" stroke="rgb(204, 204, 204)" stroke-width="1px"></line><line x1="1086" y1="0" x2="1086" y2="5" style="visibility: inherit;" fill="rgb(0, 0, 0)" stroke="rgb(204, 204, 204)" stroke-width="1px"></line><line x1="1206.6666666666667" y1="0" x2="1206.6666666666667" y2="5" style="visibility: inherit;" fill="rgb(0, 0, 0)" stroke="rgb(204, 204, 204)" stroke-width="1px"></line><line x1="1327.3333333333333" y1="0" x2="1327.3333333333333" y2="5" style="visibility: inherit;" fill="rgb(0, 0, 0)" stroke="rgb(204, 204, 204)" stroke-width="1px"></line><line x1="1448" y1="0" x2="1448" y2="5" style="visibility: inherit;" fill="rgb(0, 0, 0)" stroke="rgb(204, 204, 204)" stroke-width="1px"></line></g><g transform="translate(0, 8)"><text x="0" y="0" dx="0em" dy="0.95em" style="text-anchor: middle; visibility: hidden; font-family: &quot;Helvetica Neue&quot;, sans-serif; font-size: 12px; font-weight: 200;" fill="rgb(33, 33, 33)" stroke="none" stroke-width="1px">-1M</text><text x="120.66666666666666" y="0" dx="0em" dy="0.95em" style="text-anchor: middle; visibility: inherit; font-family: &quot;Helvetica Neue&quot;, sans-serif; font-size: 12px; font-weight: 200;" fill="rgb(33, 33, 33)" stroke="none" stroke-width="1px">0</text><text x="241.33333333333331" y="0" dx="0em" dy="0.95em" style="text-anchor: middle; visibility: inherit; font-family: &quot;Helvetica Neue&quot;, sans-serif; font-size: 12px; font-weight: 200;" fill="rgb(33, 33, 33)" stroke="none" stroke-width="1px">1M</text><text x="362" y="0" dx="0em" dy="0.95em" style="text-anchor: middle; visibility: inherit; font-family: &quot;Helvetica Neue&quot;, sans-serif; font-size: 12px; font-weight: 200;" fill="rgb(33, 33, 33)" stroke="none" stroke-width="1px">2M</text><text x="482.66666666666663" y="0" dx="0em" dy="0.95em" style="text-anchor: middle; visibility: inherit; font-family: &quot;Helvetica Neue&quot;, sans-serif; font-size: 12px; font-weight: 200;" fill="rgb(33, 33, 33)" stroke="none" stroke-width="1px">3M</text><text x="603.3333333333334" y="0" dx="0em" dy="0.95em" style="text-anchor: middle; visibility: inherit; font-family: &quot;Helvetica Neue&quot;, sans-serif; font-size: 12px; font-weight: 200;" fill="rgb(33, 33, 33)" stroke="none" stroke-width="1px">4M</text><text x="724" y="0" dx="0em" dy="0.95em" style="text-anchor: middle; visibility: inherit; font-family: &quot;Helvetica Neue&quot;, sans-serif; font-size: 12px; font-weight: 200;" fill="rgb(33, 33, 33)" stroke="none" stroke-width="1px">5M</text><text x="844.6666666666667" y="0" dx="0em" dy="0.95em" style="text-anchor: middle; visibility: inherit; font-family: &quot;Helvetica Neue&quot;, sans-serif; font-size: 12px; font-weight: 200;" fill="rgb(33, 33, 33)" stroke="none" stroke-width="1px">6M</text><text x="965.3333333333333" y="0" dx="0em" dy="0.95em" style="text-anchor: middle; visibility: inherit; font-family: &quot;Helvetica Neue&quot;, sans-serif; font-size: 12px; font-weight: 200;" fill="rgb(33, 33, 33)" stroke="none" stroke-width="1px">7M</text><text x="1086" y="0" dx="0em" dy="0.95em" style="text-anchor: middle; visibility: inherit; font-family: &quot;Helvetica Neue&quot;, sans-serif; font-size: 12px; font-weight: 200;" fill="rgb(33, 33, 33)" stroke="none" stroke-width="1px">8M</text><text x="1206.6666666666667" y="0" dx="0em" dy="0.95em" style="text-anchor: middle; visibility: inherit; font-family: &quot;Helvetica Neue&quot;, sans-serif; font-size: 12px; font-weight: 200;" fill="rgb(33, 33, 33)" stroke="none" stroke-width="1px">9M</text><text x="1327.3333333333333" y="0" dx="0em" dy="0.95em" style="text-anchor: middle; visibility: inherit; font-family: &quot;Helvetica Neue&quot;, sans-serif; font-size: 12px; font-weight: 200;" fill="rgb(33, 33, 33)" stroke="none" stroke-width="1px">10M</text><text x="1448" y="0" dx="0em" dy="0.95em" style="text-anchor: middle; visibility: hidden; font-family: &quot;Helvetica Neue&quot;, sans-serif; font-size: 12px; font-weight: 200;" fill="rgb(33, 33, 33)" stroke="none" stroke-width="1px">11M</text></g><line x1="0" y1="0" x2="1448" y2="0" fill="rgb(0, 0, 0)" stroke="rgb(204, 204, 204)" stroke-width="1px"></line></g></g></g></g></svg>